<?xml version="1.0" encoding="UTF-8"?>
<!-- Generator: Adobe Illustrator 24.0.1, SVG Export Plug-In . SVG Version: 6.00 Build 0)  -->
<svg version="1.1" id="Layer_1" xmlns="http://www.w3.org/2000/svg" xmlns:xlink="http://www.w3.org/1999/xlink" x="0px" y="0px" viewBox="0 0 500 211.8" style="enable-background:new 0 0 500 211.8;" xml:space="preserve">
<style type="text/css">
	.st0{fill:#FFFFFF;}
	.st1{clip-path:url(#SVGID_2_);}
</style>
<title>IconicLogo</title>
<g>
	<path class="st0" d="M227.7,81.7c0.7-0.1,1.4-0.3,2.1-0.3C229,81.4,228.3,81.5,227.7,81.7"/>
	<path class="st0" d="M232,81.2c-0.1,0-0.3,0-0.4,0C231.7,81.2,231.9,81.2,232,81.2L232,81.2z"/>
	<path class="st0" d="M211.1,102v0.1c0-2.4,0.4-4.8,1.2-7.1C211.5,97.4,211.1,99.7,211.1,102"/>
	<path class="st0" d="M219.6,85.3c0.2-0.2,0.4-0.4,0.7-0.5C220,85,219.8,85.2,219.6,85.3"/>
	<path class="st0" d="M236.4,81.7L236.4,81.7"/>
	<path class="st0" d="M242.8,84.2c0.3,0.2,0.7,0.4,1,0.6C243.5,84.6,243.1,84.4,242.8,84.2"/>
	<path class="st0" d="M232.5,81.2c0.6,0,1.2,0,1.8,0.1C233.7,81.3,233.1,81.2,232.5,81.2"/>
	<path class="st0" d="M229.5,122.8c-0.3,0-0.6-0.1-0.8-0.2C228.9,122.7,229.2,122.8,229.5,122.8"/>
	<path class="st0" d="M234.6,122.8c-0.7,0.1-1.4,0.1-2.1,0.1C233.2,122.9,233.9,122.9,234.6,122.8"/>
	<path class="st0" d="M239.8,121.5c-0.7,0.3-1.4,0.5-2.1,0.7C238.4,122,239.1,121.7,239.8,121.5"/>
	<path class="st0" d="M249.7,113.3c-0.6,0.9-1.2,1.8-1.9,2.6C248.4,115.1,249.1,114.2,249.7,113.3"/>
	<path class="st0" d="M232,123L232,123c-0.1,0-0.3,0-0.4,0C231.7,123,231.9,123,232,123"/>
	<path class="st0" d="M226.9,122.3c-0.2,0-0.4-0.1-0.5-0.2C226.5,122.2,226.7,122.3,226.9,122.3"/>
	<path class="st0" d="M237.2,122.3c-0.6,0.1-1.1,0.2-1.7,0.3C236.1,122.6,236.6,122.5,237.2,122.3"/>
	<path class="st0" d="M229.8,83.1c0.4-0.1,0.8-0.1,1.1-0.1C230.5,83,230.2,83.1,229.8,83.1"/>
	<path class="st0" d="M239.8,121.5c0.6-0.3,1.3-0.5,1.9-0.8c2.2-1.2,4.3-2.7,5.9-4.6c-1.6,1.7-3.4,3.2-5.4,4.3   C241.4,120.7,240.6,121.1,239.8,121.5"/>
	<path class="st0" d="M234.3,83.1L234.3,83.1z"/>
	<path class="st0" d="M232.5,121.2c0.6,0,1.3-0.1,1.9-0.2l0,0c-0.8,0.1-1.5,0.1-2.3,0.2C232.2,121.2,232.3,121.2,232.5,121.2"/>
	<path class="st0" d="M251.3,110.2c-0.4,0.9-0.9,1.8-1.4,2.7c2.1-3.2,3.1-6.9,3.1-10.6c0,0,0-0.1,0-0.1   C253,104.9,252.4,107.7,251.3,110.2"/>
	<path class="st0" d="M232.3,83H232c0.4,0,0.8,0,1.1,0.1C232.9,83,232.6,83,232.3,83"/>
	<path class="st0" d="M227.6,81.7c-1.5,0.3-3,0.8-4.4,1.5c-0.6,0.3-1.3,0.7-1.9,1.1c0.6-0.4,1.3-0.8,1.9-1.1   C224.6,82.5,226.1,82,227.6,81.7"/>
	<path class="st0" d="M232.1,123c0.1,0,0.3,0,0.4,0C232.3,123,232.2,123,232.1,123L232.1,123z"/>
	<path class="st0" d="M243.8,84.8c0.2,0.1,0.4,0.4,0.7,0.5C244.3,85.2,244.1,85,243.8,84.8"/>
	<path class="st0" d="M231.6,122.9c-0.7,0-1.4-0.1-2.1-0.1C230.2,122.9,230.9,122.9,231.6,122.9"/>
	<path class="st0" d="M235.5,122.7c-0.3,0.1-0.6,0.1-0.9,0.2C234.9,122.8,235.2,122.7,235.5,122.7"/>
	<path class="st0" d="M228.6,122.7c-0.6-0.1-1.2-0.2-1.7-0.3C227.5,122.5,228,122.6,228.6,122.7"/>
	<path class="st0" d="M233.2,83c0.4,0,0.8,0.1,1.1,0.1C233.9,83.1,233.5,83.1,233.2,83"/>
	<path class="st0" d="M253,102c0-2.4-0.4-4.7-1.2-6.9c0.8,2.3,1.2,4.7,1.2,7.1C253,102.1,253,102.1,253,102"/>
	<path class="st0" d="M247.7,115.9C247.7,115.9,247.7,115.9,247.7,115.9C247.6,116,247.7,116,247.7,115.9"/>
	<path class="st0" d="M232.1,81.2L232.1,81.2c0.1,0,0.3,0,0.5,0C232.4,81.2,232.2,81.2,232.1,81.2"/>
	<path class="st0" d="M249.9,112.9c-0.1,0.1-0.2,0.3-0.3,0.4C249.7,113.2,249.8,113.1,249.9,112.9"/>
	<path class="st0" d="M239.8,121.5"/>
	<path class="st0" d="M237.7,122.1c-0.2,0.1-0.4,0.1-0.5,0.2C237.4,122.3,237.5,122.2,237.7,122.1"/>
	<path class="st0" d="M227.6,81.7L227.6,81.7"/>
	<path class="st0" d="M234.3,81.3c0.7,0.1,1.4,0.2,2.1,0.3C235.7,81.5,235,81.4,234.3,81.3"/>
	<path class="st0" d="M220.3,84.8c0.3-0.2,0.7-0.4,1-0.6C221,84.4,220.6,84.6,220.3,84.8"/>
	<path class="st0" d="M229.7,81.3c0.6-0.1,1.2-0.1,1.9-0.1C231,81.2,230.3,81.3,229.7,81.3"/>
	<path class="st0" d="M226.4,122.1c-0.7-0.2-1.4-0.4-2.1-0.7C225,121.7,225.7,122,226.4,122.1"/>
	<path class="st0" d="M219.6,85.3c-2.4,1.7-4.4,4-5.9,6.6c-0.5,1-1,2.1-1.4,3.2c0.4-1.1,0.9-2.1,1.4-3.1   C215.2,89.4,217.2,87.1,219.6,85.3"/>
	<path class="st0" d="M231.8,83c-0.3,0-0.6,0.1-0.9,0.1c0.4,0,0.7-0.1,1.1-0.1L231.8,83"/>
	<path class="st0" d="M229.7,121.1c0.6,0.1,1.3,0.2,1.9,0.2c0.1,0,0.3,0,0.4,0C231.3,121.2,230.5,121.2,229.7,121.1L229.7,121.1z"/>
	<path class="st0" d="M242.8,84.2c-1.9-1.2-4-2.1-6.3-2.5c1.5,0.3,2.9,0.8,4.3,1.5C241.5,83.5,242.2,83.8,242.8,84.2"/>
	<polygon class="st0" points="229.7,83.1 229.7,83.1 229.8,83.1  "/>
	<path class="st0" d="M57.6,161.9c0,0.9-0.1,1.9-0.4,2.8c-0.2,0.8-0.6,1.5-1.1,2.1c-0.5,0.6-1.1,1-1.8,1.3c-0.8,0.3-1.7,0.5-2.5,0.5   c-0.8,0-1.7-0.1-2.5-0.4c-0.7-0.3-1.3-0.7-1.7-1.2c-0.5-0.6-0.8-1.3-1-2c-0.2-0.9-0.4-1.8-0.3-2.8c0-0.9,0.1-1.8,0.4-2.7   c0.2-0.8,0.6-1.5,1.1-2.1c0.5-0.6,1.1-1,1.8-1.3c0.8-0.3,1.7-0.5,2.5-0.5c0.8,0,1.7,0.1,2.4,0.4c0.7,0.3,1.3,0.7,1.7,1.2   c0.5,0.6,0.8,1.3,1,2C57.5,160,57.6,160.9,57.6,161.9 M55.8,162c0-0.7-0.1-1.3-0.2-2c-0.1-0.6-0.3-1.1-0.6-1.6   c-0.3-0.4-0.7-0.8-1.2-1c-0.6-0.3-1.2-0.4-1.8-0.4c-0.6,0-1.3,0.1-1.8,0.4c-0.5,0.3-0.9,0.6-1.2,1.1c-0.3,0.5-0.5,1-0.7,1.6   c-0.1,0.6-0.2,1.3-0.2,1.9c0,0.7,0.1,1.4,0.2,2c0.1,0.6,0.3,1.1,0.6,1.6c0.3,0.4,0.7,0.8,1.2,1.1c0.6,0.3,1.2,0.4,1.8,0.4   c0.6,0,1.3-0.1,1.9-0.4c0.5-0.3,0.9-0.7,1.2-1.1c0.3-0.5,0.5-1,0.7-1.6C55.8,163.2,55.8,162.6,55.8,162 M67.6,168c0,0,0,0.1,0,0.1   c0,0-0.1,0.1-0.1,0.1c-0.1,0-0.1,0-0.2,0.1h-0.4h-0.3c-0.1,0-0.2,0-0.2-0.1c-0.1,0-0.1-0.1-0.1-0.1c0,0,0-0.1,0-0.1v-1.2   c-0.4,0.5-0.9,0.9-1.5,1.2c-0.5,0.2-1,0.4-1.5,0.4c-0.5,0-1-0.1-1.5-0.3c-0.4-0.2-0.7-0.5-1-0.8c-0.3-0.3-0.4-0.7-0.5-1.2   c-0.1-0.5-0.2-1.1-0.1-1.7v-5.3c0,0,0-0.1,0-0.1c0,0,0.1-0.1,0.1-0.1c0.1,0,0.2,0,0.3-0.1h0.4h0.4c0.1,0,0.2,0,0.2,0.1   c0.1,0,0.1,0.1,0.1,0.1c0,0,0,0.1,0,0.1v5.1c0,0.4,0,0.8,0.1,1.2c0.1,0.3,0.2,0.5,0.3,0.8c0.1,0.2,0.3,0.4,0.6,0.5   c0.3,0.1,0.5,0.2,0.8,0.2c0.4,0,0.9-0.2,1.2-0.4c0.5-0.4,0.9-0.8,1.3-1.3v-6.1c0,0,0-0.1,0-0.1c0,0,0.1-0.1,0.1-0.1   c0.1,0,0.2,0,0.2-0.1h0.4h0.4c0.1,0,0.2,0,0.2,0.1c0.1,0,0.1,0.1,0.1,0.1c0,0,0.1,0.1,0,0.1L67.6,168z M75.7,159.8   c0,0.1,0,0.3,0,0.4s0,0.2,0,0.2c0,0,0,0.1-0.1,0.1c0,0-0.1,0-0.1,0c-0.1,0-0.1,0-0.2,0l-0.2-0.1l-0.3-0.1c-0.1,0-0.3,0-0.4,0   c-0.2,0-0.3,0-0.5,0.1c-0.2,0.1-0.4,0.2-0.5,0.3c-0.2,0.2-0.4,0.4-0.5,0.6c-0.2,0.2-0.4,0.5-0.6,0.9v5.8c0,0,0,0.1,0,0.1   c0,0-0.1,0.1-0.1,0.1c-0.1,0-0.2,0-0.2,0.1h-0.4h-0.4c-0.1,0-0.2,0-0.2-0.1c-0.1,0-0.1,0-0.1-0.1c0,0,0-0.1,0-0.1v-8.8   c0,0,0-0.1,0-0.1c0,0,0.1-0.1,0.1-0.1c0.1,0,0.1,0,0.2-0.1h0.4h0.4c0.1,0,0.2,0,0.2,0.1c0,0,0.1,0.1,0.1,0.1c0,0,0,0.1,0,0.1v1.3   c0.2-0.3,0.4-0.6,0.7-0.8c0.2-0.2,0.4-0.4,0.6-0.5c0.2-0.1,0.4-0.2,0.6-0.3c0.2-0.1,0.4-0.1,0.6-0.1h0.3c0.1,0,0.2,0,0.3,0.1   c0.1,0,0.2,0,0.3,0.1c0.1,0,0.1,0.1,0.2,0.1c0,0,0.1,0.1,0.1,0.1c0,0,0,0.1,0,0.1c0,0.1,0,0.1,0,0.2   C75.7,159.6,75.7,159.7,75.7,159.8 M90,159.4c0,0.6-0.1,1.2-0.3,1.7c-0.2,0.5-0.5,0.9-0.9,1.3c-0.4,0.4-0.9,0.7-1.4,0.8   c-0.6,0.2-1.3,0.3-2,0.3H84v4.5c0,0.1,0,0.1-0.1,0.1c0,0-0.1,0.1-0.1,0.1c-0.1,0-0.2,0-0.3,0c-0.1,0-0.3,0-0.4,0   c-0.1,0-0.3,0-0.4,0c-0.1,0-0.2,0-0.2,0c-0.1,0-0.1,0-0.1-0.1c0,0,0-0.1,0-0.1v-11.7c0-0.2,0-0.4,0.2-0.5c0.1-0.1,0.3-0.2,0.5-0.2   h2.7c0.3,0,0.6,0,0.8,0c0.3,0,0.6,0.1,0.9,0.1c0.4,0.1,0.7,0.2,1.1,0.4c0.3,0.2,0.6,0.5,0.9,0.8c0.3,0.3,0.4,0.7,0.6,1   C90,158.5,90.1,158.9,90,159.4 M88.3,159.5c0-0.4-0.1-0.9-0.3-1.3c-0.2-0.3-0.4-0.6-0.7-0.8c-0.3-0.2-0.6-0.3-0.9-0.3   c-0.3,0-0.6-0.1-0.9-0.1H84v5.1h1.5c0.4,0,0.9-0.1,1.3-0.2c0.3-0.1,0.6-0.3,0.8-0.5c0.2-0.2,0.4-0.5,0.5-0.8   C88.2,160.3,88.3,159.9,88.3,159.5 M97.6,159.9c0,0.1,0,0.3,0,0.4c0,0.1,0,0.2,0,0.2c0,0,0,0.1-0.1,0.1c0,0-0.1,0.1-0.1,0   c-0.1,0-0.1,0-0.2,0l-0.3-0.1l-0.3-0.1c-0.1,0-0.3,0-0.4,0c-0.2,0-0.3,0-0.5,0.1c-0.2,0.1-0.3,0.2-0.5,0.3   c-0.2,0.2-0.4,0.4-0.5,0.6c-0.2,0.3-0.4,0.6-0.6,0.9v5.8c0,0,0,0.1,0,0.1c0,0-0.1,0.1-0.1,0.1c-0.1,0-0.2,0-0.2,0.1h-0.4h-0.4   l-0.3-0.1c0,0-0.1-0.1-0.1-0.1c0,0,0-0.1,0-0.1v-8.8c0,0,0-0.1,0-0.1c0,0,0.1-0.1,0.1-0.1l0.2-0.1h0.4h0.4c0.1,0,0.2,0,0.2,0.1   c0,0,0.1,0.1,0.1,0.1c0,0,0,0.1,0,0.1v1.3c0.2-0.3,0.4-0.6,0.7-0.8c0.2-0.2,0.4-0.4,0.6-0.5c0.2-0.1,0.4-0.2,0.6-0.3   c0.2-0.1,0.4-0.1,0.6-0.1h0.3c0.1,0,0.2,0,0.3,0.1c0.1,0,0.2,0,0.3,0.1c0.1,0,0.1,0.1,0.2,0.1c0,0,0.1,0.1,0.1,0.1c0,0,0,0.1,0,0.1   c0,0.1,0,0.1,0,0.2L97.6,159.9z M106.7,163.3c0,0.2,0,0.4-0.2,0.5c-0.1,0.1-0.3,0.2-0.4,0.2h-5.8c0,0.4,0.1,0.9,0.2,1.3   c0.1,0.4,0.3,0.7,0.5,1c0.2,0.3,0.5,0.5,0.9,0.6c0.4,0.2,0.9,0.2,1.3,0.2c0.4,0,0.7,0,1.1-0.1c0.3-0.1,0.6-0.1,0.8-0.2   c0.2-0.1,0.4-0.2,0.6-0.2c0.1-0.1,0.2-0.1,0.4-0.1c0,0,0.1,0,0.1,0c0,0,0.1,0.1,0.1,0.1c0,0.1,0,0.1,0,0.2c0,0.1,0,0.2,0,0.3   c0,0.1,0,0.1,0,0.2c0,0.1,0,0.1,0,0.2c0,0,0,0.1,0,0.1c0,0-0.1,0.1-0.1,0.1c-0.1,0.1-0.2,0.1-0.3,0.2c-0.2,0.1-0.4,0.2-0.7,0.2   c-0.3,0.1-0.6,0.1-1,0.2c-0.4,0.1-0.8,0.1-1.2,0.1c-0.6,0-1.3-0.1-1.9-0.3c-0.5-0.2-1-0.5-1.4-0.9c-0.4-0.4-0.7-0.9-0.8-1.5   c-0.2-0.7-0.3-1.4-0.3-2.1c0-0.7,0.1-1.4,0.3-2c0.2-0.6,0.5-1.1,0.8-1.5c0.4-0.4,0.8-0.8,1.4-1c0.6-0.2,1.2-0.3,1.8-0.3   c0.6,0,1.2,0.1,1.8,0.3c0.5,0.2,0.9,0.5,1.2,0.9c0.3,0.4,0.6,0.8,0.7,1.3c0.2,0.5,0.2,1.1,0.2,1.6L106.7,163.3z M105,162.9   c0.1-0.7-0.1-1.4-0.6-2c-0.4-0.5-1.1-0.8-1.8-0.7c-0.4,0-0.7,0.1-1.1,0.2c-0.3,0.1-0.5,0.3-0.7,0.6c-0.2,0.2-0.4,0.5-0.5,0.8   c-0.1,0.3-0.2,0.7-0.2,1L105,162.9z M115.4,166.8c0,0.1,0,0.2,0,0.3c0,0.1,0,0.1,0,0.2c0,0.1,0,0.1-0.1,0.1c0,0.1-0.1,0.1-0.1,0.2   c-0.1,0.1-0.3,0.2-0.4,0.3c-0.2,0.1-0.4,0.2-0.7,0.3c-0.3,0.1-0.5,0.2-0.8,0.2c-0.3,0.1-0.6,0.1-0.9,0.1c-0.6,0-1.1-0.1-1.7-0.3   c-0.5-0.2-0.9-0.5-1.2-0.9c-0.3-0.4-0.6-0.9-0.7-1.5c-0.2-0.7-0.3-1.3-0.3-2c0-0.8,0.1-1.5,0.3-2.2c0.2-0.6,0.5-1.1,0.9-1.5   c0.4-0.4,0.8-0.7,1.3-0.9c0.5-0.2,1.1-0.3,1.7-0.3c0.3,0,0.6,0,0.8,0.1c0.2,0,0.5,0.1,0.7,0.2c0.2,0.1,0.4,0.2,0.6,0.3   c0.1,0.1,0.2,0.2,0.3,0.3c0.1,0.1,0.1,0.1,0.2,0.2c0,0,0.1,0.1,0.1,0.2c0,0.1,0,0.1,0,0.2c0,0.1,0,0.2,0,0.3c0,0.2,0,0.4-0.1,0.5   c0,0.1-0.1,0.2-0.2,0.2c-0.1,0-0.2-0.1-0.3-0.2c-0.2-0.1-0.3-0.2-0.5-0.3c-0.2-0.1-0.5-0.3-0.7-0.4c-0.3-0.1-0.6-0.2-1-0.2   c-0.7,0-1.4,0.3-1.8,0.9c-0.5,0.8-0.7,1.7-0.6,2.6c0,0.5,0.1,1,0.2,1.5c0.1,0.4,0.3,0.7,0.5,1.1c0.2,0.3,0.5,0.5,0.8,0.6   c0.3,0.2,0.7,0.3,1.1,0.3c0.3,0,0.7-0.1,1-0.2c0.3-0.1,0.5-0.2,0.7-0.4c0.2-0.1,0.4-0.2,0.5-0.4c0.1-0.1,0.2-0.1,0.3-0.2   c0,0,0.1,0,0.1,0c0,0,0.1,0.1,0.1,0.1c0,0.1,0,0.1,0.1,0.2C115.4,166.5,115.4,166.6,115.4,166.8 M119.3,156.3c0,0.3,0,0.5-0.2,0.8   c-0.2,0.2-0.5,0.2-0.8,0.2c-0.3,0-0.6,0-0.8-0.2c-0.2-0.2-0.2-0.5-0.2-0.8c0-0.3,0.1-0.6,0.2-0.8c0.2-0.2,0.5-0.3,0.8-0.2   c0.3,0,0.5,0,0.8,0.2C119.3,155.8,119.4,156,119.3,156.3 M119.2,168c0,0,0,0.1,0,0.1c0,0-0.1,0.1-0.1,0.1c-0.1,0-0.2,0-0.2,0.1   h-0.4H118c-0.1,0-0.2,0-0.2-0.1c-0.1,0-0.1-0.1-0.1-0.1c0,0,0-0.1,0-0.1v-8.7c0,0,0-0.1,0-0.1c0,0,0.1-0.1,0.1-0.1   c0.1,0,0.1,0,0.2-0.1h0.4h0.4c0.1,0,0.2,0,0.2,0.1c0.1,0,0.1,0.1,0.1,0.1c0,0,0,0.1,0,0.1V168z M127.7,165.6c0,0.4-0.1,0.8-0.2,1.2   c-0.2,0.3-0.4,0.6-0.7,0.9c-0.3,0.2-0.7,0.4-1.1,0.5c-0.5,0.1-0.9,0.2-1.4,0.2c-0.3,0-0.6,0-0.9-0.1c-0.3,0-0.5-0.1-0.8-0.2   c-0.2-0.1-0.4-0.1-0.6-0.2c-0.1-0.1-0.2-0.1-0.3-0.2c-0.1-0.1-0.1-0.2-0.1-0.3c0-0.2-0.1-0.3,0-0.5c0-0.1,0-0.2,0-0.3   c0-0.1,0-0.1,0.1-0.2c0,0,0-0.1,0.1-0.1c0,0,0.1,0,0.1,0c0.1,0,0.2,0.1,0.3,0.1c0.1,0.1,0.3,0.2,0.5,0.3c0.2,0.1,0.5,0.2,0.7,0.3   c0.3,0.1,0.6,0.1,1,0.1c0.3,0,0.5,0,0.7-0.1c0.2-0.1,0.4-0.1,0.6-0.3c0.2-0.1,0.3-0.3,0.4-0.4c0.1-0.2,0.2-0.4,0.1-0.6   c0-0.2-0.1-0.4-0.2-0.6c-0.1-0.2-0.3-0.3-0.5-0.4c-0.2-0.1-0.5-0.2-0.7-0.3l-0.8-0.3c-0.3-0.1-0.5-0.2-0.8-0.4   c-0.3-0.1-0.5-0.3-0.7-0.5c-0.2-0.2-0.4-0.4-0.5-0.7c-0.1-0.3-0.2-0.7-0.2-1c0-0.3,0.1-0.7,0.2-1c0.1-0.3,0.3-0.6,0.6-0.8   c0.3-0.3,0.6-0.5,1-0.6c0.5-0.1,0.9-0.2,1.4-0.2c0.2,0,0.5,0,0.7,0.1c0.2,0,0.5,0.1,0.6,0.1c0.2,0.1,0.3,0.1,0.5,0.2   c0.1,0,0.2,0.1,0.3,0.2c0.1,0,0.1,0.1,0.1,0.1c0,0,0,0.1,0,0.1c0,0,0,0.1,0,0.2c0,0.1,0,0.2,0,0.3c0,0.1,0,0.2,0,0.3   c0,0.1,0,0.1,0,0.2c0,0,0,0.1-0.1,0.1c0,0-0.1,0-0.1,0c-0.1,0-0.2,0-0.2-0.1c-0.1-0.1-0.2-0.1-0.4-0.2c-0.2-0.1-0.4-0.1-0.6-0.2   c-0.5-0.1-1-0.1-1.5,0c-0.2,0.1-0.4,0.2-0.5,0.3c-0.1,0.1-0.2,0.2-0.3,0.4c-0.1,0.2-0.1,0.3-0.1,0.5c0,0.2,0.1,0.4,0.2,0.6   c0.1,0.2,0.3,0.3,0.5,0.5c0.2,0.1,0.5,0.3,0.7,0.3l0.8,0.3c0.3,0.1,0.6,0.2,0.8,0.4c0.3,0.1,0.5,0.3,0.7,0.5   c0.2,0.2,0.4,0.4,0.5,0.7C127.6,165,127.6,165.3,127.7,165.6 M131.8,156.3c0,0.4-0.1,0.6-0.2,0.8c-0.2,0.2-0.5,0.2-0.8,0.2   c-0.3,0-0.6,0-0.8-0.2c-0.2-0.2-0.2-0.5-0.2-0.8c-0.1-0.4,0.2-0.9,0.6-1c0.1,0,0.2,0,0.4,0c0.3,0,0.6,0,0.8,0.2   C131.7,155.7,131.8,155.9,131.8,156.3 M131.6,168.1c0,0,0,0.1,0,0.1c0,0-0.1,0.1-0.1,0.1c-0.1,0-0.2,0-0.2,0.1h-0.4h-0.4   c-0.1,0-0.2,0-0.2-0.1c-0.1,0-0.1-0.1-0.1-0.1c0,0,0-0.1,0-0.1v-8.8c0,0,0-0.1,0-0.1c0,0,0.1-0.1,0.1-0.1c0.1,0,0.1,0,0.2-0.1h0.4   h0.4c0.1,0,0.2,0,0.2,0.1c0.1,0,0.1,0.1,0.1,0.1c0,0,0,0.1,0,0.1V168.1z M142.7,163.6c0,0.7-0.1,1.3-0.3,2   c-0.2,0.6-0.4,1.1-0.8,1.5c-0.4,0.4-0.9,0.8-1.4,1c-0.6,0.3-1.3,0.4-2,0.4c-0.6,0-1.3-0.1-1.9-0.3c-0.5-0.2-1-0.5-1.3-0.9   c-0.4-0.4-0.7-0.9-0.8-1.5c-0.2-0.6-0.3-1.3-0.3-2c0-0.7,0.1-1.3,0.3-2c0.2-0.6,0.4-1.1,0.8-1.6c0.4-0.4,0.9-0.8,1.4-1   c0.6-0.3,1.3-0.4,2-0.4c0.6,0,1.3,0.1,1.9,0.3c0.5,0.2,1,0.5,1.3,0.9c0.4,0.4,0.7,0.9,0.8,1.5C142.7,162.2,142.8,162.9,142.7,163.6    M141.1,163.7c0-0.5,0-0.9-0.1-1.3c-0.1-0.4-0.2-0.8-0.4-1.1c-0.2-0.3-0.5-0.6-0.8-0.8c-0.4-0.2-0.9-0.3-1.3-0.3   c-0.4,0-0.8,0.1-1.2,0.2c-0.3,0.2-0.6,0.4-0.8,0.7c-0.2,0.3-0.4,0.7-0.5,1.1c-0.1,0.5-0.2,0.9-0.2,1.4c0,0.5,0,0.9,0.1,1.3   c0.1,0.4,0.2,0.8,0.4,1.1c0.2,0.3,0.5,0.6,0.8,0.7c0.4,0.2,0.8,0.3,1.2,0.3c0.4,0,0.8-0.1,1.2-0.3c0.3-0.2,0.6-0.4,0.8-0.7   c0.2-0.3,0.4-0.7,0.5-1.1c0.1-0.5,0.2-0.9,0.2-1.4 M152.6,168.1c0,0,0,0.1,0,0.1c0,0-0.1,0.1-0.1,0.1c-0.1,0-0.2,0-0.2,0.1h-0.4   h-0.4c-0.1,0-0.2,0-0.2-0.1c0,0-0.1-0.1-0.1-0.1c0,0-0.1-0.1-0.1-0.1v-5.1c0-0.4,0-0.8-0.1-1.2c-0.1-0.3-0.2-0.6-0.3-0.8   c-0.1-0.2-0.3-0.4-0.6-0.5c-0.3-0.1-0.5-0.2-0.8-0.2c-0.4,0-0.9,0.2-1.2,0.4c-0.5,0.4-0.9,0.8-1.3,1.3v6.1c0,0,0,0.1,0,0.1   c0,0-0.1,0.1-0.1,0.1c-0.1,0-0.2,0-0.2,0.1h-0.4h-0.4c-0.1,0-0.2,0-0.2-0.1c-0.1,0-0.1-0.1-0.1-0.1c0,0,0-0.1,0-0.1v-8.7   c0,0,0-0.1,0-0.1c0,0,0.1-0.1,0.1-0.1l0.2-0.1h0.4h0.4c0.1,0,0.1,0,0.2,0.1c0,0,0.1,0.1,0.1,0.1c0,0,0,0.1,0,0.1v1.2   c0.4-0.5,0.9-0.9,1.5-1.2c0.5-0.3,1-0.4,1.5-0.4c0.5,0,1,0.1,1.5,0.3c0.4,0.2,0.7,0.5,1,0.8c0.2,0.4,0.4,0.7,0.5,1.2   c0.1,0.5,0.2,1.1,0.2,1.6L152.6,168.1z M172.4,159.3c0,0.1,0,0.1,0,0.2c0,0.1,0,0.2-0.1,0.2l-2.6,8.3c0,0.1-0.1,0.1-0.1,0.2   c0,0.1-0.1,0.1-0.2,0.1c-0.1,0-0.2,0-0.3,0h-0.5h-0.5c-0.1,0-0.2,0-0.3-0.1c-0.1,0-0.1-0.1-0.2-0.1c0,0-0.1-0.1-0.1-0.2l-1.8-6.4   v-0.1v0.1l-1.8,6.4c0,0.1,0,0.1-0.1,0.2c-0.1,0-0.1,0.1-0.2,0.1c-0.1,0-0.2,0-0.3,0h-0.5h-0.5c-0.1,0-0.2,0-0.3-0.1   c-0.1,0-0.1-0.1-0.2-0.1c0,0-0.1-0.1-0.1-0.2l-2.5-8.3c0-0.1-0.1-0.2-0.1-0.2c0-0.1,0-0.1,0-0.2c0-0.1,0-0.1,0-0.1   c0,0,0.1-0.1,0.1-0.1c0.1,0,0.2-0.1,0.2,0h0.4h0.4c0.1,0,0.2,0,0.3,0c0.1,0,0.1,0,0.1,0.1c0,0,0,0.1,0.1,0.1l2.1,7.2v0.1v-0.1   l2-7.2c0-0.1,0-0.1,0.1-0.1c0-0.1,0.1-0.1,0.1-0.1c0.1,0,0.2,0,0.2,0h0.4h0.4c0.1,0,0.2,0,0.2,0c0.1,0,0.1,0,0.1,0.1   c0,0,0.1,0.1,0.1,0.1l2.1,7.3v0.1v-0.1l2.1-7.2c0-0.1,0-0.1,0.1-0.1c0,0,0.1-0.1,0.1-0.1c0.1,0,0.2,0,0.3,0h0.4h0.4   c0.1,0,0.2,0,0.2,0C172.3,159.1,172.3,159.2,172.4,159.3 M176.1,156.3c0,0.3,0,0.6-0.2,0.8c-0.2,0.2-0.5,0.2-0.8,0.2   c-0.3,0-0.5,0-0.8-0.2c-0.2-0.2-0.3-0.5-0.2-0.8c0-0.3,0-0.5,0.2-0.8c0.2-0.2,0.5-0.2,0.8-0.2c0.3,0,0.6,0,0.8,0.2   C176.1,155.8,176.2,156.1,176.1,156.3 M176,168.1c0,0,0,0.1,0,0.1c0,0-0.1,0.1-0.1,0.1c-0.1,0-0.2,0-0.3,0.1h-0.4h-0.4   c-0.1,0-0.2,0-0.3-0.1c0,0-0.1-0.1-0.1-0.1c0,0,0-0.1,0-0.1v-8.8c0,0,0-0.1,0-0.1c0,0,0.1-0.1,0.1-0.1c0.1,0,0.2,0,0.3-0.1h0.4h0.4   c0.1,0,0.2,0,0.3,0.1c0,0,0.1,0.1,0.1,0.1c0,0,0,0.1,0,0.1V168.1z M180.5,168.1c0,0,0,0.1,0,0.1c0,0-0.1,0.1-0.1,0.1   c-0.1,0-0.2,0-0.2,0.1h-0.4h-0.4l-0.3-0.1c0,0-0.1-0.1-0.1-0.1c0,0,0-0.1,0-0.1v-13c0,0,0-0.1,0-0.1c0,0,0.1-0.1,0.1-0.1   c0.1,0,0.2,0,0.3-0.1c0.1,0,0.2,0,0.4,0s0.3,0,0.4,0c0.1,0,0.2,0,0.2,0.1c0.1,0,0.1,0.1,0.1,0.1c0,0,0,0.1,0,0.1V168.1z    M185.1,168.1c0,0,0,0.1,0,0.1c0,0-0.1,0.1-0.1,0.1c-0.1,0-0.2,0-0.2,0.1h-0.4H184c-0.1,0-0.2,0-0.2-0.1c-0.1,0-0.1,0-0.1-0.1   c0,0,0-0.1,0-0.1v-13c0-0.1,0.1-0.2,0.2-0.2c0.1,0,0.2-0.1,0.2-0.1c0.1,0,0.2,0,0.4,0c0.1,0,0.3,0,0.4,0c0.1,0,0.2,0,0.2,0.1   c0.1,0,0.1,0.1,0.1,0.1c0,0,0,0.1,0,0.1L185.1,168.1z M200.7,163.6c0,0.7-0.1,1.4-0.2,2c-0.2,0.6-0.4,1.1-0.7,1.6   c-0.3,0.4-0.7,0.8-1.2,1c-0.5,0.2-1.1,0.4-1.7,0.3c-0.3,0-0.5,0-0.8-0.1c-0.3-0.1-0.5-0.1-0.7-0.3c-0.2-0.1-0.5-0.3-0.7-0.5   c-0.2-0.2-0.5-0.4-0.7-0.7v1.1c0,0,0,0.1,0,0.1c0,0-0.1,0.1-0.1,0.1c-0.1,0-0.1,0-0.2,0.1h-0.3h-0.3c-0.1,0-0.1,0-0.2-0.1   c0,0-0.1,0-0.1-0.1c0,0,0-0.1,0-0.1v-13c0,0,0-0.1,0-0.1c0,0,0.1-0.1,0.1-0.1c0.1,0,0.2-0.1,0.2-0.1c0.1,0,0.2,0,0.4,0s0.3,0,0.4,0   c0.1,0,0.2,0,0.3,0.1c0,0,0.1,0.1,0.1,0.1c0,0,0,0.1,0,0.1v5.2c0.2-0.2,0.5-0.5,0.8-0.7c0.2-0.2,0.5-0.3,0.7-0.4   c0.2-0.1,0.5-0.2,0.7-0.2c0.2-0.1,0.5-0.1,0.7-0.1c0.6,0,1.1,0.1,1.7,0.4c0.4,0.3,0.8,0.6,1.1,1c0.3,0.5,0.5,1,0.6,1.5   C200.6,162.3,200.6,163,200.7,163.6 M199,163.7c0-0.4,0-0.9-0.1-1.3c-0.1-0.4-0.2-0.8-0.4-1.1c-0.2-0.3-0.4-0.6-0.7-0.8   c-0.3-0.2-0.7-0.3-1.1-0.3c-0.2,0-0.4,0-0.6,0.1c-0.2,0.1-0.4,0.2-0.6,0.3c-0.2,0.2-0.5,0.3-0.7,0.5c-0.3,0.3-0.5,0.5-0.7,0.8v3.5   c0.4,0.5,0.8,0.9,1.3,1.2c0.4,0.3,0.8,0.4,1.3,0.4c0.4,0,0.7-0.1,1.1-0.3c0.3-0.2,0.5-0.5,0.7-0.8c0.2-0.3,0.3-0.7,0.4-1.1   C198.9,164.6,199,164.2,199,163.7 M208.2,159.9c0,0.1,0,0.3,0,0.4c0,0.1,0,0.2,0,0.2c0,0,0,0.1-0.1,0.1c0,0-0.1,0.1-0.1,0   c-0.1,0-0.1,0-0.2,0l-0.3-0.1l-0.3-0.1c-0.1,0-0.3,0-0.4,0c-0.2,0-0.3,0-0.5,0.1c-0.2,0.1-0.3,0.2-0.5,0.3   c-0.2,0.2-0.4,0.4-0.5,0.6c-0.2,0.3-0.4,0.6-0.6,0.9v5.8c0,0,0,0.1,0,0.1c0,0-0.1,0.1-0.1,0.1c-0.1,0-0.2,0-0.2,0.1h-0.4h-0.4   c-0.1,0-0.2,0-0.2-0.1c-0.1,0-0.1-0.1-0.1-0.1c0,0,0-0.1,0-0.1v-8.8c0,0,0-0.1,0-0.1c0,0,0.1-0.1,0.1-0.1c0.1,0,0.2,0,0.2-0.1h0.4   h0.4c0.1,0,0.1,0,0.2,0.1c0,0,0.1,0.1,0.1,0.1c0,0,0,0.1,0,0.1v1.3c0.2-0.3,0.4-0.6,0.7-0.8c0.2-0.2,0.4-0.4,0.6-0.5   c0.2-0.1,0.4-0.2,0.6-0.3c0.2-0.1,0.4-0.1,0.6-0.1h0.3c0.1,0,0.2,0,0.3,0.1c0.1,0,0.2,0,0.3,0.1c0.1,0,0.1,0.1,0.2,0.1   c0,0,0.1,0.1,0.1,0.1c0,0,0,0.1,0,0.1c0,0.1,0,0.1,0,0.2C208.2,159.6,208.2,159.7,208.2,159.9 M211.8,156.3c0,0.3,0,0.5-0.2,0.8   c-0.2,0.2-0.5,0.2-0.8,0.2c-0.3,0-0.5,0-0.8-0.2c-0.2-0.2-0.2-0.5-0.2-0.8c0-0.3,0-0.5,0.2-0.8c0.2-0.2,0.5-0.3,0.8-0.2   c0.3,0,0.5,0,0.8,0.2C211.7,155.8,211.8,156.1,211.8,156.3 M211.6,168.1c0,0,0,0.1,0,0.1c0,0-0.1,0.1-0.1,0.1c-0.1,0-0.2,0-0.2,0.1   h-0.4h-0.4c-0.1,0-0.2,0-0.3-0.1c-0.1,0-0.1-0.1-0.1-0.1c0,0,0-0.1,0-0.1v-8.8c0,0,0-0.1,0-0.1c0,0,0.1-0.1,0.1-0.1   c0.1,0,0.2,0,0.3-0.1h0.4h0.4c0.1,0,0.2,0,0.2,0.1c0,0,0.1,0.1,0.1,0.1c0,0,0,0.1,0,0.1V168.1z M222.1,168.1c0,0,0,0.1,0,0.1   c0,0-0.1,0.1-0.1,0.1c-0.1,0-0.2,0-0.2,0.1h-0.4h-0.4c-0.1,0-0.2,0-0.2-0.1c-0.1,0-0.2-0.1-0.2-0.2v-5.1c0-0.4,0-0.8-0.1-1.2   c-0.1-0.3-0.2-0.6-0.3-0.8c-0.1-0.2-0.3-0.4-0.6-0.5c-0.3-0.1-0.5-0.2-0.8-0.2c-0.4,0-0.9,0.2-1.2,0.4c-0.5,0.4-0.9,0.8-1.3,1.3   v6.1c0,0,0,0.1,0,0.1c0,0-0.1,0.1-0.1,0.1c-0.1,0-0.2,0-0.2,0.1h-0.4H215c-0.1,0-0.2,0-0.2-0.1c0,0-0.1-0.1-0.1-0.1   c0,0,0-0.1,0-0.1v-8.8c0,0,0-0.1,0-0.1c0,0,0.1-0.1,0.1-0.1c0.1,0,0.2,0,0.2-0.1h0.4h0.4c0.1,0,0.1,0,0.2,0.1c0,0,0.1,0.1,0.1,0.1   c0,0,0,0.1,0,0.1v1.2c0.4-0.5,0.9-0.9,1.5-1.2c0.5-0.3,1-0.4,1.5-0.4c0.5,0,1,0.1,1.5,0.3c0.4,0.2,0.7,0.5,1,0.8   c0.2,0.4,0.4,0.7,0.5,1.2c0.1,0.5,0.2,1.1,0.2,1.6L222.1,168.1z M232.5,159.7c0,0.2,0,0.3-0.1,0.5c0,0.1-0.1,0.2-0.2,0.2H231   c0.2,0.2,0.4,0.5,0.5,0.8c0.1,0.3,0.1,0.6,0.1,0.9c0,0.5-0.1,0.9-0.2,1.3c-0.2,0.4-0.4,0.7-0.7,1c-0.3,0.3-0.7,0.5-1.1,0.6   c-0.4,0.1-0.9,0.2-1.4,0.2c-0.3,0-0.7,0-1-0.1c-0.3-0.1-0.5-0.2-0.8-0.4c-0.1,0.1-0.2,0.3-0.3,0.4c-0.1,0.2-0.1,0.3-0.1,0.5   c0,0.2,0.1,0.4,0.3,0.6c0.2,0.2,0.5,0.2,0.8,0.2l2.3,0.1c0.4,0,0.8,0.1,1.2,0.2c0.3,0.1,0.7,0.2,0.9,0.5c0.3,0.2,0.5,0.4,0.6,0.7   c0.2,0.3,0.2,0.7,0.2,1c0,0.4-0.1,0.8-0.2,1.2c-0.2,0.4-0.4,0.7-0.8,1c-0.4,0.3-0.9,0.5-1.3,0.7c-0.6,0.2-1.3,0.2-1.9,0.2   c-0.6,0-1.2-0.1-1.8-0.2c-0.4-0.1-0.8-0.3-1.2-0.5c-0.3-0.2-0.5-0.4-0.7-0.7c-0.1-0.3-0.2-0.6-0.2-0.9c0-0.2,0-0.4,0.1-0.6   c0.1-0.2,0.1-0.4,0.2-0.6c0.1-0.2,0.2-0.4,0.4-0.5c0.2-0.2,0.4-0.3,0.6-0.5c-0.3-0.1-0.5-0.3-0.7-0.6c-0.2-0.2-0.2-0.5-0.2-0.8   c0-0.4,0.1-0.7,0.2-1.1c0.2-0.3,0.4-0.6,0.6-0.8c-0.2-0.2-0.4-0.5-0.5-0.8c-0.1-0.3-0.2-0.7-0.2-1.1c0-0.5,0.1-0.9,0.2-1.3   c0.2-0.4,0.4-0.7,0.7-1c0.3-0.3,0.7-0.5,1.1-0.6c0.4-0.2,0.9-0.2,1.4-0.2c0.2,0,0.5,0,0.7,0c0.2,0,0.4,0.1,0.6,0.1h2.7   c0.1,0,0.2,0.1,0.2,0.2C232.5,159.3,232.6,159.5,232.5,159.7 M230.8,168.9c0-0.4-0.2-0.7-0.4-0.9c-0.4-0.2-0.8-0.3-1.3-0.3   l-2.3-0.1c-0.2,0.1-0.4,0.3-0.5,0.5c-0.1,0.1-0.2,0.3-0.3,0.4c-0.1,0.1-0.1,0.3-0.2,0.4c0,0.1,0,0.3,0,0.4c0,0.4,0.2,0.8,0.6,1   c0.6,0.2,1.2,0.4,1.8,0.3c0.4,0,0.8,0,1.2-0.1c0.3-0.1,0.6-0.2,0.8-0.4c0.2-0.1,0.3-0.3,0.4-0.5   C230.9,169.3,230.9,169.1,230.8,168.9 M230.1,162c0-0.5-0.2-1-0.5-1.4c-0.4-0.4-0.9-0.5-1.4-0.5c-0.3,0-0.6,0.1-0.8,0.2   c-0.2,0.1-0.4,0.2-0.6,0.4c-0.2,0.2-0.3,0.4-0.3,0.6c-0.1,0.2-0.1,0.5-0.1,0.8c0,0.5,0.2,1,0.5,1.4c0.4,0.3,0.9,0.5,1.4,0.5   c0.3,0,0.6,0,0.8-0.2c0.2-0.1,0.4-0.2,0.6-0.4c0.2-0.2,0.3-0.4,0.3-0.6C230,162.5,230,162.2,230.1,162 M246.1,168.3l-1.2,3.2   c-0.1,0.1-0.2,0.2-0.3,0.2c-0.4,0.1-0.7,0.1-1.1,0.1c-0.1,0-0.2,0-0.3-0.1c0,0-0.1-0.1-0.1-0.2c0-0.1,0-0.2,0-0.2l1.2-3.1   c-0.1,0-0.1-0.1-0.2-0.1c-0.1-0.1-0.1-0.1-0.1-0.2l-3.1-8.4c-0.1-0.1-0.1-0.2-0.1-0.3c0-0.1,0-0.1,0.1-0.2c0.1-0.1,0.2-0.1,0.2-0.1   c0.2,0,0.3,0,0.5,0h0.5c0.1,0,0.2,0,0.3,0c0.1,0,0.1,0.1,0.1,0.1c0,0.1,0.1,0.1,0.1,0.2l2.5,7l0,0l2.4-7.1c0-0.1,0.1-0.2,0.1-0.2   c0.1,0,0.2-0.1,0.3-0.1c0.2,0,0.3,0,0.5,0c0.2,0,0.3,0,0.5,0c0.1,0,0.2,0,0.3,0.1c0.1,0,0.1,0.1,0.1,0.2c0,0.1,0,0.2,0,0.3   L246.1,168.3z M259.1,163.6c0,0.7-0.1,1.3-0.3,2c-0.2,0.6-0.5,1.1-0.8,1.5c-0.4,0.4-0.9,0.8-1.4,1c-0.6,0.3-1.3,0.4-2,0.4   c-0.6,0-1.3-0.1-1.9-0.3c-0.5-0.2-1-0.5-1.3-0.9c-0.4-0.4-0.7-0.9-0.8-1.5c-0.2-0.6-0.3-1.3-0.3-2c0-0.7,0.1-1.3,0.3-2   c0.2-0.6,0.5-1.1,0.8-1.6c0.4-0.4,0.9-0.8,1.4-1c0.6-0.2,1.3-0.4,2-0.4c0.6,0,1.3,0.1,1.9,0.3c0.5,0.2,1,0.5,1.3,0.9   c0.4,0.4,0.7,0.9,0.8,1.5C259.1,162.2,259.1,162.9,259.1,163.6 M257.5,163.7c0-0.5-0.1-0.9-0.1-1.3c-0.1-0.4-0.2-0.8-0.4-1.1   c-0.2-0.3-0.5-0.6-0.8-0.8c-0.4-0.2-0.9-0.3-1.3-0.3c-0.4,0-0.8,0.1-1.2,0.2c-0.3,0.2-0.6,0.4-0.8,0.7c-0.2,0.3-0.4,0.7-0.5,1.1   c-0.1,0.5-0.2,0.9-0.2,1.4c0,0.5,0,0.9,0.1,1.3c0.1,0.4,0.2,0.8,0.4,1.1c0.2,0.3,0.5,0.6,0.8,0.7c0.4,0.2,0.9,0.3,1.3,0.3   c0.4,0,0.8-0.1,1.2-0.3c0.3-0.2,0.6-0.4,0.8-0.7c0.2-0.3,0.4-0.7,0.5-1.1C257.4,164.6,257.5,164.2,257.5,163.7 M269.1,168.1   c0,0,0,0.1,0,0.1c0,0-0.1,0.1-0.1,0.1c-0.1,0-0.2,0-0.2,0.1h-0.3H268c-0.1,0-0.2,0-0.2-0.1c0,0-0.1-0.1-0.1-0.1c0,0,0-0.1,0-0.1   v-1.2c-0.4,0.5-0.9,0.9-1.5,1.2c-0.5,0.2-1,0.4-1.5,0.4c-0.5,0-1-0.1-1.5-0.3c-0.4-0.2-0.7-0.5-1-0.8c-0.3-0.3-0.4-0.7-0.5-1.2   c-0.1-0.5-0.2-1.1-0.2-1.7v-5.3c0,0,0-0.1,0-0.1c0,0,0.1-0.1,0.1-0.1c0.1,0,0.2,0,0.3-0.1h0.4h0.4c0.1,0,0.2,0,0.2,0.1   c0.1,0,0.1,0.1,0.1,0.1c0,0,0,0.1,0,0.1v5.1c0,0.4,0,0.8,0.1,1.2c0.1,0.3,0.2,0.5,0.3,0.8c0.2,0.2,0.4,0.4,0.6,0.5   c0.3,0.1,0.5,0.2,0.8,0.2c0.4,0,0.9-0.2,1.2-0.4c0.5-0.4,0.9-0.8,1.3-1.3v-6.1c0,0,0-0.1,0-0.1c0,0,0.1-0.1,0.1-0.1   c0.1,0,0.2,0,0.3-0.1h0.4h0.4l0.3,0.1c0,0,0.1,0.1,0.1,0.1c0,0,0.1,0.1,0,0.1L269.1,168.1z M277.2,159.9c0,0.1,0,0.3,0,0.4   c0,0.1,0,0.2,0,0.2c0,0,0,0.1-0.1,0.1c0,0-0.1,0-0.1,0c-0.1,0-0.1,0-0.2,0l-0.2-0.1l-0.3-0.1c-0.1,0-0.2,0-0.4,0   c-0.2,0-0.3,0-0.5,0.1c-0.2,0.1-0.3,0.2-0.5,0.3c-0.2,0.2-0.4,0.4-0.5,0.6c-0.2,0.2-0.4,0.5-0.6,0.9v5.8c0,0,0,0.1,0,0.1   c0,0-0.1,0.1-0.1,0.1c-0.1,0-0.2,0-0.2,0.1h-0.4h-0.4c-0.1,0-0.2,0-0.2-0.1c-0.1,0-0.1-0.1-0.1-0.1c0,0,0-0.1,0-0.1v-8.8   c0,0,0-0.1,0-0.1c0,0,0.1-0.1,0.1-0.1l0.2-0.1h0.4h0.3c0.1,0,0.1,0,0.2,0.1c0,0,0.1,0.1,0.1,0.1c0,0,0,0.1,0,0.1v1.3   c0.2-0.3,0.4-0.6,0.7-0.8c0.2-0.2,0.4-0.4,0.6-0.5c0.2-0.1,0.4-0.2,0.6-0.3c0.2-0.1,0.4-0.1,0.6-0.1h0.3c0.1,0,0.2,0,0.3,0.1   c0.1,0,0.2,0,0.3,0.1c0.1,0,0.1,0.1,0.2,0.1c0,0,0.1,0.1,0.1,0.1c0,0,0,0.1,0,0.1c0,0.1,0,0.1,0,0.2   C277.1,159.6,277.1,159.7,277.2,159.9 M289,165.7c0,0.4-0.1,0.8-0.3,1.2c-0.2,0.3-0.4,0.6-0.7,0.9c-0.3,0.2-0.7,0.4-1.1,0.5   c-0.5,0.1-0.9,0.2-1.4,0.2c-0.3,0-0.6,0-0.9-0.1c-0.3,0-0.5-0.1-0.8-0.2c-0.2-0.1-0.4-0.1-0.6-0.2c-0.1-0.1-0.2-0.1-0.3-0.2   c-0.1-0.1-0.1-0.2-0.2-0.3c0-0.2,0-0.3,0-0.5c0-0.1,0-0.2,0-0.3c0-0.1,0-0.1,0-0.2c0,0,0-0.1,0.1-0.1c0,0,0.1,0,0.1,0   c0.1,0,0.2,0.1,0.3,0.1c0.2,0.1,0.3,0.2,0.5,0.3c0.2,0.1,0.5,0.2,0.7,0.3c0.3,0.1,0.6,0.1,1,0.1c0.2,0,0.5,0,0.7-0.1   c0.2-0.1,0.4-0.1,0.6-0.3c0.2-0.1,0.3-0.3,0.4-0.4c0.1-0.2,0.2-0.4,0.1-0.6c0-0.2-0.1-0.4-0.2-0.6c-0.1-0.2-0.3-0.3-0.5-0.4   c-0.2-0.1-0.5-0.3-0.7-0.3l-0.8-0.3c-0.3-0.1-0.6-0.2-0.8-0.4c-0.3-0.1-0.5-0.3-0.7-0.5c-0.2-0.2-0.4-0.4-0.5-0.7   c-0.1-0.3-0.2-0.7-0.2-1c0-0.3,0.1-0.7,0.2-1c0.1-0.3,0.3-0.6,0.6-0.8c0.3-0.3,0.6-0.4,1-0.6c0.5-0.1,0.9-0.2,1.4-0.2   c0.2,0,0.5,0,0.7,0.1c0.2,0,0.4,0.1,0.6,0.1c0.2,0.1,0.3,0.1,0.5,0.2c0.1,0,0.2,0.1,0.3,0.2c0,0,0.1,0.1,0.1,0.1c0,0,0,0.1,0,0.1   c0,0,0,0.1,0,0.2s0,0.2,0,0.3s0,0.2,0,0.3c0,0.1,0,0.1-0.1,0.2c0,0,0,0.1-0.1,0.1c0,0-0.1,0-0.1,0c-0.1,0-0.2,0-0.3-0.1   c-0.1-0.1-0.3-0.1-0.4-0.2l-0.6-0.2c-0.3-0.1-0.5-0.1-0.8-0.1c-0.2,0-0.5,0-0.7,0.1c-0.2,0.1-0.4,0.1-0.5,0.3   c-0.1,0.1-0.2,0.2-0.3,0.4c-0.1,0.2-0.1,0.3-0.1,0.5c0,0.2,0.1,0.5,0.2,0.6c0.1,0.2,0.3,0.3,0.5,0.5c0.2,0.1,0.5,0.3,0.7,0.3   l0.8,0.3c0.3,0.1,0.6,0.2,0.8,0.4c0.3,0.1,0.5,0.3,0.7,0.5c0.2,0.2,0.4,0.4,0.5,0.7C288.9,165,288.9,165.3,289,165.7 M297.8,168.1   c0,0.1,0,0.1-0.1,0.2c-0.1,0-0.1,0.1-0.2,0.1c-0.1,0-0.3,0-0.4,0c-0.1,0-0.3,0-0.4,0c-0.1,0-0.2,0-0.2-0.1c0,0-0.1-0.1-0.1-0.2   v-0.9c-0.4,0.4-0.8,0.7-1.3,1c-0.5,0.2-1,0.3-1.5,0.3c-0.4,0-0.8-0.1-1.3-0.2c-0.7-0.2-1.3-0.7-1.6-1.3c-0.1-0.4-0.2-0.8-0.2-1.1   c0-0.4,0.1-0.9,0.3-1.3c0.2-0.4,0.5-0.7,0.9-0.9c0.4-0.3,0.9-0.4,1.4-0.5c0.6-0.1,1.2-0.2,1.8-0.2h1.2v-0.7c0-0.3,0-0.6-0.1-0.9   c-0.1-0.2-0.2-0.5-0.3-0.6c-0.2-0.2-0.4-0.3-0.6-0.4c-0.3-0.1-0.6-0.1-0.9-0.1c-0.4,0-0.7,0-1.1,0.1c-0.3,0.1-0.6,0.2-0.8,0.3   c-0.2,0.1-0.4,0.2-0.6,0.3c-0.1,0.1-0.2,0.1-0.4,0.1c0,0-0.1,0-0.1,0c0,0-0.1-0.1-0.1-0.1c0-0.1,0-0.1-0.1-0.2c0-0.1,0-0.2,0-0.3   c0-0.1,0-0.3,0-0.4c0-0.1,0.1-0.2,0.2-0.3c0.1-0.1,0.3-0.2,0.5-0.3c0.2-0.1,0.5-0.2,0.7-0.3c0.3-0.1,0.6-0.2,0.9-0.2   c0.3-0.1,0.7-0.1,1-0.1c0.5,0,1.1,0.1,1.6,0.2c0.4,0.1,0.8,0.3,1.1,0.6c0.3,0.3,0.5,0.6,0.6,1c0.1,0.5,0.2,0.9,0.2,1.4L297.8,168.1   z M296.2,164.1h-1.4c-0.4,0-0.8,0-1.2,0.1c-0.3,0.1-0.6,0.2-0.8,0.3c-0.2,0.1-0.4,0.3-0.5,0.5c-0.1,0.2-0.2,0.5-0.2,0.7   c0,0.4,0.1,0.8,0.4,1.1c0.3,0.3,0.8,0.4,1.2,0.4c0.4,0,0.8-0.1,1.2-0.3c0.4-0.3,0.8-0.6,1.1-1L296.2,164.1z M308.3,159   c0.1,0,0.3,0,0.4,0.1c0.1,0.1,0.1,0.2,0.1,0.4v8.5c0,0,0,0.1,0,0.1c0,0-0.1,0.1-0.1,0.1c-0.1,0-0.2,0-0.2,0.1H308h-0.4   c-0.1,0-0.2,0-0.2-0.1c0,0-0.1-0.1-0.1-0.1c0,0,0-0.1,0-0.1v-7.7h-4.5v4.9c0,0.5,0.1,0.9,0.3,1.4c0.2,0.3,0.6,0.5,1,0.5   c0.1,0,0.3,0,0.4,0l0.3-0.1c0.1,0,0.2-0.1,0.2-0.1c0.1,0,0.1,0,0.2,0h0.1c0,0,0.1,0.1,0.1,0.1c0,0.1,0,0.1,0,0.2c0,0.1,0,0.2,0,0.3   c0,0.2,0,0.3,0,0.4c0,0.1-0.1,0.2-0.1,0.2c-0.1,0.1-0.2,0.1-0.2,0.2c-0.1,0-0.2,0.1-0.3,0.1c-0.1,0-0.3,0-0.4,0.1   c-0.1,0-0.3,0-0.4,0c-0.4,0-0.8-0.1-1.2-0.2c-0.3-0.1-0.6-0.3-0.8-0.5c-0.2-0.3-0.4-0.6-0.5-0.9c-0.1-0.4-0.1-0.9-0.1-1.3v-5.1   h-1.2c-0.1,0-0.2-0.1-0.2-0.2c-0.1-0.2-0.1-0.3-0.1-0.5c0-0.1,0-0.2,0-0.3c0-0.1,0-0.2,0-0.2c0,0,0.1-0.1,0.1-0.1c0,0,0.1,0,0.1,0   h1.2V157c0,0,0-0.1,0-0.1c0,0,0.1-0.1,0.1-0.1c0.1,0,0.2,0,0.2-0.1h0.4h0.4c0.1,0,0.2,0,0.2,0.1c0.1,0,0.1,0.1,0.1,0.1   c0,0,0,0.1,0,0.1v2.1L308.3,159z M309,156.3c0,0.3,0,0.5-0.2,0.8c-0.2,0.2-0.5,0.2-0.8,0.2c-0.3,0-0.5,0-0.8-0.2   c-0.2-0.2-0.2-0.5-0.2-0.8c0-0.3,0-0.5,0.2-0.8c0.2-0.2,0.5-0.3,0.8-0.2c0.3,0,0.5,0,0.8,0.2C308.9,155.8,309,156.1,309,156.3    M317.3,165.7c0,0.4-0.1,0.8-0.2,1.2c-0.2,0.3-0.4,0.6-0.7,0.9c-0.3,0.2-0.7,0.4-1.1,0.5c-0.5,0.1-0.9,0.2-1.4,0.2   c-0.3,0-0.6,0-0.9-0.1c-0.3,0-0.5-0.1-0.8-0.2c-0.2-0.1-0.4-0.1-0.6-0.2c-0.1-0.1-0.2-0.1-0.3-0.2c-0.1-0.1-0.1-0.2-0.2-0.3   c0-0.2,0-0.3,0-0.5c0-0.1,0-0.2,0-0.3c0-0.1,0-0.1,0-0.2c0,0,0.1-0.1,0.1-0.1c0,0,0.1,0,0.1,0c0.1,0,0.2,0.1,0.3,0.1   c0.1,0.1,0.3,0.2,0.5,0.3c0.2,0.1,0.5,0.2,0.7,0.3c0.3,0.1,0.6,0.1,1,0.1c0.2,0,0.5,0,0.7-0.1c0.2,0,0.4-0.1,0.6-0.3   c0.2-0.1,0.3-0.3,0.4-0.4c0.1-0.2,0.1-0.4,0.1-0.6c0-0.2-0.1-0.4-0.2-0.6c-0.1-0.2-0.3-0.3-0.5-0.4c-0.2-0.1-0.5-0.3-0.7-0.3   l-0.8-0.3c-0.3-0.1-0.5-0.2-0.8-0.4c-0.3-0.1-0.5-0.3-0.7-0.5c-0.2-0.2-0.4-0.4-0.5-0.7c-0.1-0.3-0.2-0.7-0.2-1   c0-0.3,0.1-0.7,0.2-1c0.1-0.3,0.3-0.6,0.6-0.8c0.3-0.3,0.6-0.5,1-0.6c0.5-0.1,0.9-0.2,1.4-0.2c0.2,0,0.5,0,0.7,0.1   c0.2,0,0.4,0.1,0.6,0.1c0.2,0.1,0.3,0.1,0.5,0.2c0.1,0,0.2,0.1,0.3,0.2l0.1,0.1c0,0,0,0.1,0,0.1c0,0.1,0,0.1,0,0.2   c0,0.1,0,0.2,0,0.3c0,0.1,0,0.2,0,0.3c0,0.1,0,0.1-0.1,0.2c0,0,0,0.1-0.1,0.1c0,0-0.1,0-0.1,0c-0.1,0-0.2-0.1-0.2-0.1   c-0.1-0.1-0.3-0.1-0.4-0.2c-0.2-0.1-0.4-0.1-0.6-0.2c-0.3-0.1-0.5-0.1-0.8-0.1c-0.2,0-0.5,0-0.7,0.1c-0.2,0.1-0.4,0.1-0.5,0.3   c-0.1,0.1-0.2,0.2-0.3,0.4c-0.1,0.2-0.1,0.3-0.1,0.5c0,0.2,0.1,0.5,0.2,0.6c0.1,0.2,0.3,0.3,0.5,0.5c0.2,0.1,0.5,0.3,0.7,0.3   l0.8,0.3c0.3,0.1,0.5,0.2,0.8,0.4c0.3,0.1,0.5,0.3,0.7,0.5c0.2,0.2,0.4,0.4,0.5,0.7C317.2,165,317.3,165.3,317.3,165.7    M324.2,155.7c0,0.1,0,0.2,0,0.3c0,0.1,0,0.1,0,0.2c0,0,0,0.1-0.1,0.1c0,0-0.1,0-0.1,0c-0.1,0-0.1,0-0.2-0.1l-0.2-0.1   c-0.1,0-0.2-0.1-0.3-0.1c-0.2,0-0.3,0-0.5,0c-0.2,0-0.4,0-0.6,0.1c-0.2,0.1-0.3,0.2-0.4,0.4c-0.1,0.2-0.2,0.4-0.2,0.6   c0,0.3-0.1,0.6-0.1,1v1h2c0,0,0.1,0,0.1,0c0,0,0.1,0.1,0.1,0.1c0,0.1,0.1,0.1,0.1,0.2c0,0.1,0,0.2,0,0.3c0,0.2,0,0.3-0.1,0.5   c-0.1,0.1-0.1,0.2-0.2,0.2h-2v7.7c0,0,0,0.1,0,0.1c0,0-0.1,0.1-0.1,0.1c-0.1,0-0.2,0-0.2,0.1h-0.4h-0.4c-0.1,0-0.2,0-0.2-0.1   c-0.1,0-0.1,0-0.1-0.1c0,0,0-0.1,0-0.1v-7.7h-1.2c-0.1,0-0.2-0.1-0.2-0.2c-0.1-0.2-0.1-0.3-0.1-0.5c0-0.1,0-0.2,0-0.3   c0-0.1,0-0.1,0.1-0.2c0,0,0-0.1,0.1-0.1c0,0,0.1,0,0.1,0h1.2v-0.9c0-0.5,0.1-1.1,0.2-1.6c0.1-0.4,0.3-0.8,0.5-1.1   c0.2-0.3,0.5-0.5,0.9-0.6c0.4-0.1,0.8-0.2,1.3-0.2c0.2,0,0.4,0,0.7,0.1c0.2,0,0.3,0.1,0.5,0.1c0.1,0,0.2,0.1,0.2,0.1   c0,0,0.1,0.1,0.1,0.2c0,0.1,0,0.1,0,0.2C324.2,155.4,324.2,155.5,324.2,155.7 M331.7,168.1c0,0.1,0,0.1-0.1,0.2   c-0.1,0-0.1,0.1-0.2,0.1c-0.1,0-0.3,0-0.4,0c-0.1,0-0.3,0-0.4,0c-0.1,0-0.2,0-0.2-0.1c0,0-0.1-0.1-0.1-0.2v-0.9   c-0.4,0.4-0.8,0.7-1.3,1c-0.5,0.2-1,0.3-1.5,0.3c-0.4,0-0.8-0.1-1.3-0.2c-0.3-0.1-0.7-0.3-1-0.5c-0.3-0.2-0.5-0.5-0.6-0.8   c-0.3-0.8-0.3-1.7,0.1-2.4c0.2-0.4,0.5-0.7,0.8-0.9c0.4-0.3,0.9-0.4,1.4-0.5c0.6-0.1,1.2-0.2,1.9-0.2h1.2v-0.7c0-0.3,0-0.6-0.1-0.9   c-0.1-0.2-0.2-0.5-0.3-0.6c-0.2-0.2-0.4-0.3-0.6-0.4c-0.3-0.1-0.6-0.1-0.9-0.1c-0.4,0-0.7,0-1.1,0.1c-0.3,0.1-0.6,0.2-0.8,0.3   c-0.2,0.1-0.4,0.2-0.6,0.3c-0.1,0.1-0.2,0.1-0.4,0.1c0,0-0.1,0-0.1,0c0,0-0.1-0.1-0.1-0.1c0-0.1,0-0.1-0.1-0.2c0-0.1,0-0.2,0-0.3   c0-0.1,0-0.3,0-0.4c0-0.1,0.1-0.2,0.2-0.3c0.1-0.1,0.3-0.2,0.4-0.3c0.2-0.1,0.5-0.2,0.8-0.3c0.3-0.1,0.6-0.2,0.9-0.2   c0.3-0.1,0.7-0.1,1-0.1c0.6,0,1.1,0.1,1.7,0.2c0.4,0.1,0.8,0.3,1.1,0.6c0.3,0.3,0.5,0.6,0.6,1c0.1,0.5,0.2,0.9,0.2,1.4L331.7,168.1   z M330.1,164.1h-1.4c-0.4,0-0.8,0-1.2,0.1c-0.3,0.1-0.6,0.2-0.8,0.3c-0.2,0.1-0.4,0.3-0.5,0.5c-0.1,0.2-0.1,0.5-0.1,0.7   c0,0.4,0.1,0.8,0.4,1.1c0.3,0.3,0.8,0.4,1.2,0.4c0.4,0,0.8-0.1,1.2-0.3c0.4-0.3,0.8-0.6,1.1-1L330.1,164.1z M341,166.7   c0,0.1,0,0.2,0,0.3c0,0.1,0,0.1,0,0.2c0,0.1,0,0.1-0.1,0.1c0,0.1-0.1,0.1-0.1,0.2c-0.1,0.1-0.3,0.2-0.4,0.3   c-0.2,0.1-0.4,0.2-0.6,0.3c-0.3,0.1-0.5,0.2-0.8,0.2c-0.3,0.1-0.6,0.1-0.9,0.1c-0.6,0-1.1-0.1-1.7-0.3c-0.5-0.2-0.9-0.5-1.2-0.9   c-0.3-0.4-0.6-0.9-0.7-1.5c-0.2-0.7-0.3-1.3-0.3-2c0-0.8,0.1-1.5,0.3-2.2c0.2-0.6,0.5-1.1,0.9-1.5c0.4-0.4,0.8-0.7,1.3-0.9   c0.5-0.2,1.1-0.3,1.6-0.3c0.3,0,0.6,0,0.8,0.1c0.2,0,0.5,0.1,0.7,0.2c0.2,0.1,0.4,0.2,0.6,0.3c0.1,0.1,0.3,0.2,0.4,0.3l0.2,0.2   c0,0,0.1,0.1,0.1,0.2c0,0.1,0,0.1,0,0.2c0,0.1,0,0.2,0,0.3c0,0.2,0,0.4-0.1,0.5c-0.1,0.1-0.1,0.2-0.2,0.2c-0.1,0-0.3-0.1-0.3-0.2   c-0.1-0.1-0.3-0.3-0.5-0.3c-0.2-0.1-0.5-0.3-0.7-0.4c-0.3-0.1-0.6-0.2-1-0.2c-0.7,0-1.4,0.3-1.8,0.9c-0.4,0.8-0.7,1.7-0.6,2.6   c0,0.5,0,1,0.2,1.5c0.1,0.4,0.2,0.7,0.5,1.1c0.2,0.3,0.5,0.5,0.8,0.6c0.7,0.3,1.4,0.3,2,0c0.3-0.1,0.5-0.2,0.7-0.4   c0.2-0.1,0.4-0.3,0.5-0.4c0.1-0.1,0.2-0.1,0.3-0.2c0,0,0.1,0,0.1,0c0,0,0.1,0.1,0.1,0.1c0,0.1,0,0.1,0,0.2   C341,166.4,341,166.5,341,166.7 M350.8,159c0.1,0,0.3,0,0.4,0.1c0.1,0.1,0.1,0.3,0.1,0.4v8.5c0,0,0,0.1,0,0.1c0,0-0.1,0.1-0.1,0.1   c-0.1,0-0.2,0-0.2,0.1h-0.4h-0.4c-0.1,0-0.2,0-0.2-0.1c-0.1,0-0.1-0.1-0.1-0.1c0,0,0-0.1,0-0.1v-7.7h-4.5v4.9   c0,0.5,0.1,0.9,0.3,1.4c0.2,0.3,0.6,0.5,1,0.5c0.1,0,0.3,0,0.4,0l0.3-0.1l0.2-0.1c0.1,0,0.1,0,0.2,0h0.1c0,0,0,0,0.1,0.1   c0,0.1,0,0.1,0,0.2c0,0.1,0,0.2,0,0.3c0,0.1,0,0.3,0,0.4c0,0.1-0.1,0.2-0.1,0.2c-0.1,0.1-0.1,0.1-0.2,0.2l-0.3,0.1l-0.4,0.1h-0.4   c-0.4,0-0.8-0.1-1.2-0.2c-0.3-0.1-0.6-0.3-0.8-0.5c-0.2-0.3-0.4-0.6-0.5-0.9c-0.1-0.4-0.1-0.9-0.1-1.3v-5.1h-1.2   c-0.1,0-0.2-0.1-0.2-0.2c-0.1-0.2-0.1-0.3-0.1-0.5c0-0.1,0-0.2,0-0.3c0-0.1,0-0.1,0.1-0.2c0,0,0.1-0.1,0.1-0.1c0,0,0.1,0,0.1,0h1.3   V157c0,0,0-0.1,0-0.1c0,0,0.1-0.1,0.1-0.1c0.1,0,0.2,0,0.2-0.1h0.4h0.4c0.1,0,0.2,0,0.2,0.1c0,0,0.1,0.1,0.1,0.1c0,0,0,0.1,0,0.1   v2.1L350.8,159z M351.5,156.3c0,0.3,0,0.5-0.2,0.8c-0.2,0.2-0.5,0.2-0.8,0.2c-0.3,0-0.6,0-0.8-0.2c-0.2-0.2-0.2-0.5-0.2-0.8   c0-0.3,0-0.5,0.2-0.8c0.2-0.2,0.5-0.3,0.8-0.2c0.3,0,0.6,0,0.8,0.2C351.4,155.7,351.5,156,351.5,156.3 M362.4,163.5   c0,0.7-0.1,1.3-0.3,2c-0.3,1.1-1.1,2.1-2.2,2.6c-0.6,0.2-1.3,0.4-2,0.4c-0.6,0-1.3-0.1-1.9-0.3c-0.5-0.2-1-0.5-1.3-0.9   c-0.4-0.4-0.7-0.9-0.8-1.5c-0.2-0.6-0.3-1.3-0.3-2c0-0.7,0.1-1.3,0.3-2c0.2-0.6,0.4-1.1,0.8-1.6c0.4-0.4,0.9-0.8,1.4-1   c1.2-0.5,2.6-0.5,3.8,0c0.5,0.2,1,0.5,1.3,0.9c0.4,0.4,0.7,0.9,0.8,1.5C362.3,162.2,362.4,162.9,362.4,163.5 M360.8,163.7   c0-0.5,0-0.9-0.1-1.3c-0.1-0.4-0.2-0.8-0.4-1.1c-0.2-0.3-0.5-0.6-0.8-0.8c-0.4-0.2-0.8-0.3-1.3-0.3c-0.4,0-0.9,0.1-1.2,0.2   c-0.3,0.2-0.6,0.4-0.8,0.7c-0.2,0.3-0.4,0.7-0.5,1.1c-0.1,0.5-0.2,0.9-0.2,1.4c0,0.5,0.1,0.9,0.1,1.3c0.1,0.4,0.2,0.8,0.4,1.1   c0.2,0.3,0.5,0.6,0.8,0.7c0.4,0.2,0.8,0.3,1.3,0.3c0.4,0,0.8-0.1,1.2-0.3c0.3-0.2,0.6-0.4,0.8-0.7c0.2-0.3,0.4-0.7,0.5-1.1   C360.7,164.6,360.8,164.1,360.8,163.7 M372.4,168c0,0,0,0.1,0,0.1c0,0-0.1,0.1-0.1,0.1c-0.1,0-0.2,0-0.2,0.1h-0.4h-0.4   c-0.1,0-0.2,0-0.2-0.1c-0.1,0-0.1-0.1-0.1-0.1c0,0,0-0.1,0-0.1v-5.1c0-0.4,0-0.8-0.1-1.2c-0.1-0.3-0.2-0.6-0.3-0.8   c-0.1-0.2-0.3-0.4-0.6-0.5c-0.3-0.1-0.5-0.2-0.8-0.2c-0.4,0-0.9,0.2-1.2,0.4c-0.5,0.4-0.9,0.8-1.3,1.3v6.1c0,0,0,0.1,0,0.1   c0,0-0.1,0.1-0.1,0.1c-0.1,0-0.2,0-0.3,0.1h-0.4h-0.4c-0.1,0-0.2,0-0.3-0.1c0,0-0.1-0.1-0.1-0.1c0,0,0-0.1,0-0.1v-8.7   c0-0.1,0.1-0.2,0.2-0.2c0.1,0,0.1,0,0.2-0.1h0.4h0.4c0.1,0,0.1,0,0.2,0.1c0,0,0.1,0.1,0.1,0.1c0,0,0,0.1,0,0.1v1.2   c0.4-0.5,0.9-0.9,1.5-1.2c0.9-0.5,2-0.5,3-0.1c0.4,0.2,0.7,0.5,1,0.8c0.3,0.3,0.4,0.7,0.5,1.2c0.1,0.5,0.2,1.1,0.2,1.6L372.4,168z"/>
	<polygon class="st0" points="164.5,82.4 164.5,84.4 164.3,100.2 164.5,121.8 146.8,121.8 147,98.2 146.8,83.8 146.8,82.4  "/>
	<path class="st0" d="M188.1,83.2l-0.2,20.5l0.2,17.4c0.8,0.1,1.7,0.2,2.5,0.2c2,0,3.9-0.4,5.8-1c1.9-0.6,3.7-1.5,5.2-2.7   c1.1-0.9,2.1-1.9,3-3c1-1.1,1.8-2.4,2.5-3.7c0.4-0.7,0.8-1,1.2-1c0.6,0,1,0.3,1,0.8c0,0.6-0.5,1.5-1.4,2.9c-0.9,1.3-2,2.6-3.1,3.7   c-2.4,2.4-5.4,4.1-8.7,5c-1.9,0.5-3.8,0.8-5.8,0.8c-2.8,0-5.6-0.6-8.1-1.7c-4.2-1.7-7.7-4.8-9.9-8.7c-5.8-10-2.4-22.8,7.6-28.6   c0.5-0.3,1-0.5,1.5-0.8c7.8-3.7,17.1-2.2,23.4,3.6c1.9,1.8,2.9,3.1,2.9,3.9c0,0.2-0.1,0.4-0.3,0.6c-0.2,0.2-0.4,0.3-0.6,0.3   c-0.4,0-0.8-0.4-1.4-1.1c-1.7-2.3-3.9-4.2-6.5-5.4c-2.7-1.3-5.6-2-8.6-2C189.5,83,188.8,83,188.1,83.2"/>
	<path class="st0" d="M292.9,101.6v-4.8l-0.1-7.7v-3.5v-2.2c0-1,0.3-1.6,1.1-1.6c0.3,0,0.7,0.1,0.9,0.4c0.2,0.4,0.3,0.9,0.2,1.4V84   c0,0.4,0,1.1,0,2l-0.1,9.7l-0.1,8.9l0.1,9.4l0.1,9.4c-4-2.5-9.8-5.9-17.4-10.3c-7.6-4.4-13.8-7.8-18.6-10.3l0,1.4l0.3,14.9v2   c0,0.8-0.4,1.2-1.2,1.2c-0.8,0-1.2-0.5-1.2-1.5v-2v-3.3l0.1-14.8L257,80.8C264.8,85.6,276.8,92.5,292.9,101.6"/>
	<polygon class="st0" points="318.7,82.4 318.7,84.4 318.5,100.2 318.7,121.8 301.1,121.8 301.2,98.2 301,83.8 301.1,82.4  "/>
	<path class="st0" d="M342.3,83.2l-0.2,20.5l0.2,17.4c0.8,0.1,1.7,0.2,2.5,0.2c2,0,3.9-0.4,5.8-1c1.9-0.6,3.7-1.5,5.2-2.7   c1.1-0.9,2.1-1.9,3-3c1-1.1,1.8-2.4,2.5-3.7c0.4-0.7,0.8-1,1.2-1c0.6,0,1,0.3,1,0.8c0,0.6-0.5,1.5-1.4,2.9c-0.9,1.3-2,2.6-3.1,3.7   c-2.4,2.4-5.4,4.1-8.7,5c-1.9,0.5-3.8,0.8-5.8,0.8c-2.8,0-5.6-0.6-8.1-1.7c-4.2-1.7-7.7-4.7-9.9-8.7c-5.8-10-2.4-22.8,7.5-28.6   c0.5-0.3,1-0.6,1.5-0.8c7.8-3.7,17.1-2.3,23.4,3.6c1.9,1.8,2.9,3.1,2.9,3.9c0,0.2-0.1,0.4-0.3,0.6c-0.2,0.2-0.4,0.3-0.6,0.3   c-0.4,0-0.8-0.4-1.4-1.1c-1.7-2.3-3.9-4.2-6.5-5.4c-2.7-1.3-5.6-2-8.6-2C343.7,83,343,83,342.3,83.2"/>
	<path class="st0" d="M379.2,120c-0.7,7.7-3.3,16.7-17.1,16.7c-21.7,0-318.4,4.3-318.4,4.3s296.8,3.4,314.3,3.4   c17.5,0,20.1,8.4,20.8,14c0.7,5.6,3.5,35,3.5,35s1.7-21,3.3-34.1c1.6-13.1,10.8-14.5,17.5-15.4c6.8-0.9,53.9-3,53.9-3   s-35.5-1.7-54.2-2.8s-17.5-16.6-17.7-20.3c-0.2-3.7-2.8-58.9-2.8-58.9S379.9,112.3,379.2,120"/>
	<g>
		<defs>
			<path id="SVGID_1_" d="M379.2,120c-0.7,7.7-3.3,16.7-17.1,16.7c-21.7,0-318.4,4.3-318.4,4.3s296.8,3.4,314.3,3.4     c17.5,0,20.1,8.4,20.8,14c0.7,5.6,3.5,35,3.5,35s1.7-21,3.3-34.1c1.6-13.1,10.8-14.5,17.5-15.4c6.8-0.9,53.9-3,53.9-3     s-35.5-1.7-54.2-2.8s-17.5-16.6-17.7-20.3c-0.2-3.7-2.8-58.9-2.8-58.9S379.9,112.3,379.2,120"/>
		</defs>
		<use xlink:href="#SVGID_1_" style="overflow:visible;fill:#FFFFFF;"/>
		<clipPath id="SVGID_2_">
			<use xlink:href="#SVGID_1_" style="overflow:visible;"/>
		</clipPath>
		<g class="st1">
			<rect x="43.6" y="59" class="st0" width="413.3" height="134.6"/>
		</g>
	</g>
	<path class="st0" d="M251.8,95.1c-0.4-1.1-0.9-2.1-1.4-3.1c-0.6-1-1.2-2-2-2.8l-0.9,1.7c0.4,0.6,0.8,1.2,1.2,1.8   c1.6,2.9,2.4,6.1,2.4,9.4c0,2.5-0.5,5-1.4,7.4c-1.3,3.4-3.6,6.2-6.6,8.3c-2.6,1.8-5.6,2.9-8.7,3.3l0,0c-0.6,0.1-1.2,0.2-1.9,0.2   c-0.1,0-0.3,0-0.4,0s-0.3,0-0.4,0c-0.6,0-1.3-0.1-1.9-0.2l0,0c-4.4-0.5-8.4-2.5-11.4-5.7l-1.2,1.3c1.4,1.4,3,2.6,4.7,3.6   c0.8,0.5,1.6,0.9,2.4,1.2c0.7,0.3,1.4,0.5,2.1,0.7l0.5,0.2c0.6,0.1,1.1,0.2,1.7,0.3c0.3,0.1,0.5,0.1,0.8,0.2   c0.7,0.1,1.4,0.1,2.1,0.1c0.1,0,0.3,0,0.4,0s0.3,0,0.5,0c0.7,0,1.4,0,2.1-0.1c0.3,0,0.6-0.1,0.8-0.2c0.6-0.1,1.2-0.2,1.7-0.3   c0.2,0,0.4-0.1,0.5-0.2c0.7-0.2,1.4-0.4,2.1-0.7c0.8-0.4,1.6-0.7,2.4-1.2c2-1.1,3.9-2.6,5.4-4.3c0,0,0,0,0,0   c0.7-0.8,1.4-1.7,1.9-2.6c0.1-0.1,0.2-0.3,0.3-0.4c2-3.2,3.1-7,3.1-10.8C252.9,99.8,252.5,97.4,251.8,95.1"/>
	<path class="st0" d="M214.4,109.4c-1-2.3-1.5-4.8-1.4-7.4c0-3.3,0.8-6.5,2.4-9.4c1.9-3.4,4.8-6.2,8.4-7.8c1.9-0.9,3.9-1.5,6-1.7   l0,0c0.4-0.1,0.8-0.1,1.1-0.1c0.4,0,0.6-0.1,0.9-0.1h0.5c0.3,0,0.6,0.1,0.9,0.1c0.3,0,0.8,0,1.2,0.1l0,0c2.1,0.3,4.1,0.8,6,1.7   c1.4,0.6,2.6,1.5,3.8,2.4l1.2-1.3c-0.2-0.2-0.5-0.5-0.7-0.7c-0.3-0.2-0.4-0.4-0.7-0.5c-0.3-0.2-0.7-0.4-1-0.6   c-0.6-0.4-1.3-0.8-1.9-1.1c-1.4-0.6-2.8-1.1-4.3-1.5h-0.1c-0.7-0.1-1.4-0.3-2.1-0.3s-1.2-0.1-1.8-0.1c-0.2,0-0.3,0-0.5,0   s-0.3,0-0.5,0c-0.6,0-1.2,0-1.9,0.1s-1.4,0.2-2.1,0.3h-0.1c-1.5,0.3-2.9,0.8-4.3,1.5c-0.7,0.3-1.3,0.7-1.9,1.1   c-0.3,0.2-0.7,0.4-1,0.6c-0.3,0.2-0.4,0.4-0.7,0.5c-2.4,1.7-4.4,4-5.9,6.6c-1.7,3.1-2.6,6.6-2.6,10.2c0,2.8,0.6,5.5,1.7,8   c0.4,0.8,0.8,1.6,1.2,2.4l1.1-1.9C214.8,110.3,214.6,109.9,214.4,109.4"/>
	<polygon class="st0" points="209.8,122.3 228.1,102.3 231.8,119.4 251.9,79.5 234.6,102.2 232.9,85.3  "/>
	<path class="st0" d="M406.9,39.1c0,0.1,0,0.3,0,0.4c0,0.1,0,0.2-0.1,0.3c0,0.1-0.1,0.1-0.1,0.2c-0.1,0-0.1,0.1-0.2,0h-4.4v14.2   c0,0.1,0,0.1,0,0.2c0,0.1-0.1,0.1-0.2,0.1l-0.3,0.1c-0.2,0-0.3,0-0.5,0c-0.2,0-0.3,0-0.5,0l-0.3-0.1c-0.1,0-0.1-0.1-0.2-0.1   c0-0.1-0.1-0.1,0-0.2V40h-4.4c-0.1,0-0.1,0-0.2,0c-0.1,0-0.1-0.1-0.1-0.2c0-0.1-0.1-0.2-0.1-0.3c0-0.1,0-0.3,0-0.4   c0-0.1,0-0.3,0-0.4c0-0.1,0-0.2,0.1-0.3c0-0.1,0.1-0.1,0.1-0.2c0.1,0,0.1,0,0.2,0h10.9c0.1,0,0.1,0,0.2,0c0.1,0,0.1,0.1,0.1,0.2   c0,0.1,0.1,0.2,0.1,0.3C406.9,38.8,406.9,39,406.9,39.1z"/>
	<path class="st0" d="M426.2,54.2c0,0.1,0,0.1,0,0.2c0,0.1-0.1,0.1-0.2,0.1l-0.3,0.1c-0.2,0-0.3,0-0.5,0c-0.2,0-0.3,0-0.5,0   l-0.3-0.1c-0.1,0-0.1-0.1-0.2-0.1c0-0.1-0.1-0.1,0-0.2V40l0,0l-5.5,14.3c0,0.1-0.1,0.1-0.1,0.2c-0.1,0-0.1,0.1-0.2,0.1   c-0.1,0-0.2,0.1-0.3,0.1c-0.1,0-0.3,0-0.4,0c-0.1,0-0.3,0-0.4,0c-0.1,0-0.2,0-0.3-0.1c-0.1,0-0.1-0.1-0.2-0.1c0,0-0.1-0.1-0.1-0.1   L411.3,40l0,0v14.3c0,0.1,0,0.1,0,0.2c0,0.1-0.1,0.1-0.2,0.1l-0.3,0.1c-0.2,0-0.3,0-0.5,0c-0.2,0-0.3,0-0.5,0l-0.3-0.1   c-0.1,0-0.1-0.1-0.2-0.1c0-0.1,0-0.1,0-0.2V39.2c0-0.3,0.1-0.6,0.3-0.8c0.2-0.1,0.4-0.2,0.6-0.2h1.3c0.2,0,0.5,0,0.7,0.1   c0.2,0,0.4,0.1,0.5,0.2c0.2,0.1,0.3,0.3,0.4,0.4c0.1,0.2,0.2,0.4,0.3,0.6l4.5,11.9h0.1l4.7-11.8c0.1-0.2,0.2-0.4,0.3-0.6   c0.1-0.2,0.2-0.3,0.4-0.4c0.1-0.1,0.3-0.2,0.4-0.2c0.2,0,0.4-0.1,0.5-0.1h1.3c0.1,0,0.2,0,0.4,0.1c0.1,0,0.2,0.1,0.3,0.2   c0.1,0.1,0.1,0.2,0.2,0.3c0.1,0.1,0.1,0.3,0.1,0.4L426.2,54.2z"/>
	<path class="st0" d="M99.9,48.1l6.4-0.4c1.8,2,3.9,3.5,6.3,4.6l1.7,5.8l7.6,2.1l1.7-5c2,0,3.9-0.4,5.8-1.1l5.3,3.6l3.7-3.8   l-3.2-4.8c0.6-1.6,0.8-3.3,0.7-4.9l4.3-0.7l-2.1-5.8l-4.7-2c-0.5-0.8-1-1.5-1.5-2.2c-0.7-1-1.5-1.8-2.5-2.6l0.5-3.9l-5.6-3.9   l-3.3,1.6c-1.9-0.9-3.9-1.6-5.9-2.1l-3.6-4.1l-6.4-0.3l1.2,4.7c-1.8,0.1-3.4,0.8-4.7,2L95.2,23l-2.5,5.1l5.7,4.1c0,0-0.2,4,1.2,6.2   l-4.7,2.7 M108.4,39.6c-0.9-1.4-1.4-2.9-1.6-4.6c-0.1-2.3,1.2-6.4,7.3-6.4c3.6,0,8.5,2.5,11.5,6c1.7,1.8,2.8,4.1,2.9,6.6   c0,3.3-2.2,6.2-6.5,6.2C117.3,47.5,111.2,44.1,108.4,39.6z"/>
	<path class="st0" d="M122.8,68.8l-7.7-1.1c-1.2-2.4-2.9-4.7-4.8-6.6l1.7-6.5l-7.6-5.3l-5.6,3.8c-2.5-1.3-5.2-2-8-2.3L86.6,44h-9.4   l-0.8,7c-2.9,0.7-5.6,1.8-8.1,3.4l-9.5-3.7l-7.6,6.8l6.4,7.3c-1.7,2.7-2.7,5.7-3,8.9l-11.7,4l1,11.5l13,1c1.6,3.3,3.7,6.4,6.2,9.1   l-4.8,11.8l10.8,6.9l9.8-8.4c3.5,0.9,7.1,1.4,10.8,1.5l5.5,10.1l10.9-3.3v-11.3c2.6-1.7,4.9-3.7,7-5.9l8.8,3l3.6-8.5l-6.4-7.2   c0.6-2.6,0.7-5.3,0.4-7.9l6.2-3.4L122.8,68.8z M90.9,95.3c-10.8,0-20.1-9.1-20.1-18.6s8-16.1,16.3-16.1c9.6,0,20.9,5.9,20.9,18.6   C108,87.1,101.7,95.3,90.9,95.3z"/>
	<path class="st0" d="M168.7,64.4l0.1-3.6l2.6-0.4l-1.2-3.7l-3.4-1.8c-0.5-1.2-1.2-2.3-2.2-3.2l0.8-2.6l-2.9-3.1l-2.7,0.6   c-1-1-2.1-1.9-3.3-2.6l-1-2.7l-3.7-1.7L151,42h-3.3l-3-3.1l-2.7,1.2l1.7,3.5c-1,0.4-1.9,2.1-1.9,2.1l-3.7-1.1l-0.8,4.5l3.8,1.9   c0,1.3,0.3,2.6,0.8,3.8l-2.7,2l2.7,4.3l3.8,0.2c1.1,1.3,2.3,2.6,3.6,3.7v4l4.1,2.8l2.1-2.6c1.3,0.7,2.6,1.1,4,1.3l2.4,3.9l3.6-0.2   l-1-4.1c1-0.4,1.9-1,2.7-1.8l3.3,2.3l1.4-3L168.7,64.4z M147,52.1c0-3.2,2.1-4.6,4.3-4.6c6,0,11.9,7.4,11.9,12c0,3.2-2,4.7-4.3,4.7   C154.3,64.2,147,58.3,147,52.1z"/>
</g>
</svg>