<svg id="Layer_1" data-name="Layer 1" xmlns="http://www.w3.org/2000/svg" xmlns:xlink="http://www.w3.org/1999/xlink" viewBox="0 0 500 211.78"><defs><style>.cls-1{fill:#c3161c;}.cls-2{fill:#231f20;}.cls-3{clip-path:url(#clip-path);}.cls-4{fill:#cd181e;}</style><clipPath id="clip-path" transform="translate(0 -0.11)"><path class="cls-1" d="M406.08,123.05c-.85,9.31-3.95,20.21-20.67,20.21C359.22,143.26.66,148.5.66,148.5s358.6,4.16,379.76,4.16,24.25,10.16,25.1,16.93,4.22,42.3,4.22,42.3,2-25.38,3.94-41.17,13-17.49,21.16-18.62S500,148.43,500,148.43s-42.88-2-65.44-3.39-21.16-20-21.43-24.52-3.39-71.2-3.39-71.2-2.83,64.42-3.66,73.73"/></clipPath></defs><title>IconicLogo</title><path class="cls-2" d="M223,76.75c.82-.18,1.65-.31,2.49-.41a22.68,22.68,0,0,0-2.49.41" transform="translate(0 -0.11)"/><path class="cls-2" d="M228.29,76.17c-.18,0-.36,0-.54,0,.19,0,.38,0,.56,0Z" transform="translate(0 -0.11)"/><path class="cls-2" d="M203,101.36v.17A26.28,26.28,0,0,1,204.49,93a24.8,24.8,0,0,0-1.48,8.37" transform="translate(0 -0.11)"/><path class="cls-2" d="M213.29,81.14c.27-.19.52-.44.8-.62-.28.18-.53.43-.8.62" transform="translate(0 -0.11)"/><path class="cls-2" d="M233.58,76.75h0" transform="translate(0 -0.11)"/><path class="cls-2" d="M241.28,79.82c.4.23.85.43,1.24.7-.39-.27-.84-.47-1.24-.7" transform="translate(0 -0.11)"/><path class="cls-2" d="M228.86,76.21c.75,0,1.5.05,2.23.12-.73-.07-1.49-.11-2.23-.12" transform="translate(0 -0.11)"/><path class="cls-2" d="M225.2,126.44a9.06,9.06,0,0,1-1-.19,9.06,9.06,0,0,0,1,.19" transform="translate(0 -0.11)"/><path class="cls-2" d="M231.41,126.44a24.09,24.09,0,0,1-2.56.17,24.09,24.09,0,0,0,2.56-.17" transform="translate(0 -0.11)"/><path class="cls-2" d="M237.67,124.8a20.4,20.4,0,0,1-2.5.84,24.47,24.47,0,0,0,2.5-.84" transform="translate(0 -0.11)"/><path class="cls-2" d="M249.58,115a24.68,24.68,0,0,1-2.34,3.1,24,24,0,0,0,2.34-3.1" transform="translate(0 -0.11)"/><path class="cls-2" d="M228.29,126.64h0c-.18,0-.37,0-.54,0,.16,0,.34,0,.52,0" transform="translate(0 -0.11)"/><path class="cls-2" d="M222.09,125.85c-.22-.06-.43-.14-.65-.21.22.07.43.15.65.21" transform="translate(0 -0.11)"/><path class="cls-2" d="M234.51,125.85c-.67.17-1.36.28-2,.4a20.06,20.06,0,0,0,2-.4" transform="translate(0 -0.11)"/><path class="cls-2" d="M225.57,78.52a12.41,12.41,0,0,1,1.38-.13c-.47,0-.93.06-1.38.13" transform="translate(0 -0.11)"/><path class="cls-2" d="M237.67,124.8c.78-.32,1.55-.65,2.34-1a25,25,0,0,0,7.18-5.58,25.77,25.77,0,0,1-6.58,5.2,28.38,28.38,0,0,1-2.94,1.43" transform="translate(0 -0.11)"/><path class="cls-2" d="M231.07,78.52h0Z" transform="translate(0 -0.11)"/><path class="cls-2" d="M228.81,124.55a13,13,0,0,0,2.27-.21v0c-.91.11-1.84.17-2.78.19.18,0,.35,0,.51,0" transform="translate(0 -0.11)"/><path class="cls-2" d="M251.59,111.23a24.06,24.06,0,0,1-1.7,3.27,23.06,23.06,0,0,0,3.73-12.83s0-.09,0-.14a25.29,25.29,0,0,1-2,9.7" transform="translate(0 -0.11)"/><path class="cls-2" d="M228.61,78.3h-.3c.46,0,.91.06,1.36.08-.36,0-.71-.09-1.06-.09" transform="translate(0 -0.11)"/><path class="cls-2" d="M222.91,76.76a24.4,24.4,0,0,0-5.33,1.79,23.18,23.18,0,0,0-2.24,1.27,24,24,0,0,1,2.33-1.3,26.48,26.48,0,0,1,5.24-1.76" transform="translate(0 -0.11)"/><path class="cls-2" d="M228.33,126.64c.18,0,.34,0,.52,0-.18,0-.37,0-.54,0Z" transform="translate(0 -0.11)"/><path class="cls-2" d="M242.52,80.52c.3.18.54.43.8.62-.26-.19-.5-.44-.8-.62" transform="translate(0 -0.11)"/><path class="cls-2" d="M227.77,126.61a23.94,23.94,0,0,1-2.57-.17,23.94,23.94,0,0,0,2.57.17" transform="translate(0 -0.11)"/><path class="cls-2" d="M232.46,126.25a10.1,10.1,0,0,1-1.05.19,10.1,10.1,0,0,0,1.05-.19" transform="translate(0 -0.11)"/><path class="cls-2" d="M224.16,126.25c-.69-.11-1.39-.23-2.07-.4a21,21,0,0,0,2.07.4" transform="translate(0 -0.11)"/><path class="cls-2" d="M229.66,78.39a12.64,12.64,0,0,1,1.38.13c-.45-.07-.92-.09-1.38-.13" transform="translate(0 -0.11)"/><path class="cls-2" d="M253.62,101.36a24.57,24.57,0,0,0-1.5-8.37,25.75,25.75,0,0,1,1.48,8.54c0-.06,0-.11,0-.17" transform="translate(0 -0.11)"/><path class="cls-2" d="M247.24,118.13s0,0-.05.05,0,0,.05-.05" transform="translate(0 -0.11)"/><path class="cls-2" d="M228.33,76.17h0c.17,0,.36,0,.55,0-.19,0-.35,0-.53,0" transform="translate(0 -0.11)"/><path class="cls-2" d="M249.89,114.5c-.11.18-.2.36-.31.53.11-.17.2-.35.31-.53" transform="translate(0 -0.11)"/><path class="cls-2" d="M237.67,124.8" transform="translate(0 -0.11)"/><path class="cls-2" d="M235.17,125.64c-.23.07-.43.15-.66.21.23-.06.43-.14.66-.21" transform="translate(0 -0.11)"/><path class="cls-2" d="M222.91,76.76h0" transform="translate(0 -0.11)"/><path class="cls-2" d="M231.09,76.33c.84.11,1.67.24,2.5.42a22.47,22.47,0,0,0-2.5-.42" transform="translate(0 -0.11)"/><path class="cls-2" d="M214.08,80.52c.4-.27.84-.47,1.26-.7-.42.23-.86.43-1.26.7" transform="translate(0 -0.11)"/><path class="cls-2" d="M225.51,76.33c.74-.07,1.49-.1,2.24-.12-.75,0-1.5.05-2.24.12" transform="translate(0 -0.11)"/><path class="cls-2" d="M221.44,125.64a18.56,18.56,0,0,1-2.48-.84,20.1,20.1,0,0,0,2.48.84" transform="translate(0 -0.11)"/><path class="cls-2" d="M213.29,81.14a24.39,24.39,0,0,0-7.11,8A28.23,28.23,0,0,0,204.49,93a29.41,29.41,0,0,1,1.68-3.79,24.32,24.32,0,0,1,7.12-8" transform="translate(0 -0.11)"/><path class="cls-2" d="M228,78.3c-.36,0-.7.07-1.05.09.45,0,.89-.07,1.35-.08H228" transform="translate(0 -0.11)"/><path class="cls-2" d="M225.53,124.34a13,13,0,0,0,2.28.21c.16,0,.32,0,.5,0a25.27,25.27,0,0,1-2.78-.19Z" transform="translate(0 -0.11)"/><path class="cls-2" d="M241.28,79.82a21.66,21.66,0,0,0-7.58-3.06,26,26,0,0,1,5.23,1.76,23.16,23.16,0,0,1,2.35,1.3" transform="translate(0 -0.11)"/><polygon class="cls-2" points="225.53 78.41 225.53 78.41 225.57 78.41 225.53 78.41"/><path class="cls-2" d="M17.57,173.62a12.22,12.22,0,0,1-.43,3.33,7.1,7.1,0,0,1-1.31,2.52,5.43,5.43,0,0,1-2.18,1.61,8,8,0,0,1-3.06.55,8,8,0,0,1-3-.5,5.4,5.4,0,0,1-2.09-1.49,6.68,6.68,0,0,1-1.21-2.43,12.38,12.38,0,0,1-.41-3.33,11.44,11.44,0,0,1,.45-3.27,6.46,6.46,0,0,1,1.31-2.51,5.76,5.76,0,0,1,2.18-1.59,7.6,7.6,0,0,1,3.06-.56,7.88,7.88,0,0,1,2.93.5,5.44,5.44,0,0,1,2.09,1.49,6.41,6.41,0,0,1,1.23,2.4,12.11,12.11,0,0,1,.41,3.28m-2.15.14a10.82,10.82,0,0,0-.24-2.41,5.4,5.4,0,0,0-.76-1.94A3.75,3.75,0,0,0,13,168.15a4.69,4.69,0,0,0-2.21-.47,4.46,4.46,0,0,0-2.23.5,4.07,4.07,0,0,0-1.45,1.31,5.37,5.37,0,0,0-.8,1.94,11.29,11.29,0,0,0-.24,2.31,14.58,14.58,0,0,0,.21,2.47A5.47,5.47,0,0,0,7,178.15a3.72,3.72,0,0,0,1.42,1.28,5,5,0,0,0,2.23.45,4.54,4.54,0,0,0,2.25-.5A3.89,3.89,0,0,0,14.39,178a5.19,5.19,0,0,0,.79-1.94,11.74,11.74,0,0,0,.24-2.34m14.23,7.37a.37.37,0,0,1,0,.14.4.4,0,0,1-.16.12,1.15,1.15,0,0,1-.27.07l-.43,0-.42,0a1,1,0,0,1-.28-.07.31.31,0,0,1-.15-.12.68.68,0,0,1,0-.14v-1.41a6.51,6.51,0,0,1-1.8,1.45,3.78,3.78,0,0,1-1.78.46,4.14,4.14,0,0,1-1.79-.34,3.15,3.15,0,0,1-1.18-1,3.81,3.81,0,0,1-.65-1.41,8.49,8.49,0,0,1-.18-2v-6.43a.24.24,0,0,1,0-.15.28.28,0,0,1,.15-.13,1.61,1.61,0,0,1,.31-.07l.47,0,.47,0a1.33,1.33,0,0,1,.3.07.43.43,0,0,1,.16.13.33.33,0,0,1,.05.15v6.17a6.53,6.53,0,0,0,.14,1.49,2.58,2.58,0,0,0,.41.95,2,2,0,0,0,.69.62,2.29,2.29,0,0,0,1,.21,2.54,2.54,0,0,0,1.46-.51,8.81,8.81,0,0,0,1.54-1.53v-7.4a.24.24,0,0,1,0-.15.59.59,0,0,1,.17-.13,1.67,1.67,0,0,1,.3-.07l.47,0,.48,0a1.11,1.11,0,0,1,.29.07.36.36,0,0,1,.16.13.2.2,0,0,1,.06.15Zm9.79-9.92c0,.18,0,.33,0,.44s0,.21,0,.28a.35.35,0,0,1-.09.15.25.25,0,0,1-.16.06.56.56,0,0,1-.22-.06l-.3-.11-.4-.1a2.94,2.94,0,0,0-.46-.05,1.31,1.31,0,0,0-.57.13,2.38,2.38,0,0,0-.61.38,5.53,5.53,0,0,0-.64.73c-.23.29-.48.65-.76,1.08v7a.37.37,0,0,1,0,.14.34.34,0,0,1-.16.12,1.77,1.77,0,0,1-.29.07l-.5,0-.46,0a1.67,1.67,0,0,1-.3-.07.26.26,0,0,1-.16-.12.37.37,0,0,1,0-.14V170.52a.33.33,0,0,1,0-.15.28.28,0,0,1,.15-.13,1.38,1.38,0,0,1,.26-.07l.43,0,.44,0a1.15,1.15,0,0,1,.27.07.32.32,0,0,1,.13.13.24.24,0,0,1,0,.15v1.54a8.4,8.4,0,0,1,.82-1,4.51,4.51,0,0,1,.73-.64,2.29,2.29,0,0,1,.68-.31,2.59,2.59,0,0,1,.67-.1l.35,0a3.28,3.28,0,0,1,.41.08c.13,0,.27.06.39.09a.68.68,0,0,1,.23.12.22.22,0,0,1,.09.12.29.29,0,0,1,0,.14,1.13,1.13,0,0,1,0,.23c0,.12,0,.25,0,.43m17.28-.57a5.1,5.1,0,0,1-.37,2.05,4.43,4.43,0,0,1-1.07,1.57,5,5,0,0,1-1.74,1,7.5,7.5,0,0,1-2.42.35H49.39v5.49a.18.18,0,0,1-.07.16.25.25,0,0,1-.15.11,1.14,1.14,0,0,1-.32.06,2.25,2.25,0,0,1-.49,0,2.31,2.31,0,0,1-.49,0,.92.92,0,0,1-.3-.06.29.29,0,0,1-.18-.11.29.29,0,0,1,0-.16V167a.8.8,0,0,1,.23-.66,1,1,0,0,1,.56-.21h3.27a6.11,6.11,0,0,1,1,.06,6.36,6.36,0,0,1,1.06.17,4.59,4.59,0,0,1,1.27.5,4.23,4.23,0,0,1,1.09.92,4,4,0,0,1,.69,1.24,4.72,4.72,0,0,1,.23,1.58m-2.14.16a3.27,3.27,0,0,0-.33-1.56,2.47,2.47,0,0,0-.86-.92,3.19,3.19,0,0,0-1.06-.39,6.65,6.65,0,0,0-1.08-.09H49.39V174h1.82a4.29,4.29,0,0,0,1.54-.24,3,3,0,0,0,1-.65,2.49,2.49,0,0,0,.62-1,3.62,3.62,0,0,0,.2-1.26m11.24.41c0,.18,0,.33,0,.44a1.7,1.7,0,0,1,0,.28.36.36,0,0,1-.1.15.18.18,0,0,1-.14.06.64.64,0,0,1-.24-.06L65,172l-.38-.1a3.59,3.59,0,0,0-.46-.05,1.33,1.33,0,0,0-.58.13,1.89,1.89,0,0,0-.59.38,4,4,0,0,0-.66.73,12.19,12.19,0,0,0-.75,1.08v7a.37.37,0,0,1,0,.14.47.47,0,0,1-.18.12,1,1,0,0,1-.28.07l-.49,0-.47,0-.31-.07a.33.33,0,0,1-.14-.12.25.25,0,0,1,0-.14V170.52a.61.61,0,0,1,0-.15.39.39,0,0,1,.15-.13l.27-.07.44,0,.43,0a1.15,1.15,0,0,1,.27.07.44.44,0,0,1,.14.13.57.57,0,0,1,0,.15v1.54a6.85,6.85,0,0,1,.83-1,4.48,4.48,0,0,1,.72-.64,2.4,2.4,0,0,1,.68-.31,2.66,2.66,0,0,1,.68-.1l.34,0a3,3,0,0,1,.41.08,3.23,3.23,0,0,1,.39.09.68.68,0,0,1,.23.12c0,.05.1.08.1.12a.29.29,0,0,1,0,.14,1,1,0,0,1,0,.23Zm11,4.15a.78.78,0,0,1-.23.65.77.77,0,0,1-.52.2H69a6.33,6.33,0,0,0,.19,1.58A3.16,3.16,0,0,0,69.8,179a2.66,2.66,0,0,0,1.08.78,4.38,4.38,0,0,0,1.63.27,6.19,6.19,0,0,0,1.35-.13,6.33,6.33,0,0,0,1-.27c.3-.11.54-.2.72-.28a1.3,1.3,0,0,1,.43-.13.27.27,0,0,1,.14.05.43.43,0,0,1,.11.12,2.14,2.14,0,0,1,0,.23c0,.11,0,.22,0,.36a1.14,1.14,0,0,1,0,.27,1.08,1.08,0,0,1,0,.19.23.23,0,0,1-.06.16.49.49,0,0,1-.11.14,1.18,1.18,0,0,1-.38.21,4.74,4.74,0,0,1-.82.29c-.34.1-.73.17-1.17.26a9.31,9.31,0,0,1-1.42.1,6.69,6.69,0,0,1-2.3-.36,4.26,4.26,0,0,1-1.66-1.09,4.71,4.71,0,0,1-1-1.8,9,9,0,0,1-.33-2.51,8.28,8.28,0,0,1,.35-2.47,5.09,5.09,0,0,1,1-1.83A4.32,4.32,0,0,1,70,170.39a5.52,5.52,0,0,1,2.12-.41,5.24,5.24,0,0,1,2.12.41,4,4,0,0,1,1.44,1.08,4.17,4.17,0,0,1,.83,1.59,6.48,6.48,0,0,1,.27,1.95Zm-2-.58a3.44,3.44,0,0,0-.68-2.39,2.56,2.56,0,0,0-2.13-.88,2.74,2.74,0,0,0-1.28.28,2.52,2.52,0,0,0-.9.71,3.17,3.17,0,0,0-.57,1,4.26,4.26,0,0,0-.24,1.24Zm12.55,4.73c0,.13,0,.25,0,.35a.86.86,0,0,1,0,.24.48.48,0,0,1-.07.18,1.14,1.14,0,0,1-.18.22,3.41,3.41,0,0,1-.51.37,5,5,0,0,1-.8.38,5.38,5.38,0,0,1-1,.28,5.49,5.49,0,0,1-1.08.1,5.28,5.28,0,0,1-2-.37,3.75,3.75,0,0,1-1.47-1.1,4.9,4.9,0,0,1-.9-1.78A8.12,8.12,0,0,1,79,176a8.32,8.32,0,0,1,.39-2.7,4.87,4.87,0,0,1,1.06-1.84A4.29,4.29,0,0,1,82,170.35a5.29,5.29,0,0,1,2-.35,4.55,4.55,0,0,1,1,.1,4.23,4.23,0,0,1,.87.25,4.12,4.12,0,0,1,.73.34A2.78,2.78,0,0,1,87,171a.91.91,0,0,1,.2.22c0,.06.07.12.1.19s0,.17,0,.27,0,.2,0,.34a1.35,1.35,0,0,1-.11.64.29.29,0,0,1-.26.19.7.7,0,0,1-.41-.2,3.49,3.49,0,0,0-.59-.42,4.35,4.35,0,0,0-.84-.44,3.52,3.52,0,0,0-1.19-.2,2.48,2.48,0,0,0-2.15,1.09,5.54,5.54,0,0,0-.76,3.13,8.62,8.62,0,0,0,.19,1.79,3.93,3.93,0,0,0,.59,1.29,2.4,2.4,0,0,0,.93.77A3,3,0,0,0,84,180a3.07,3.07,0,0,0,1.18-.21,4.19,4.19,0,0,0,.87-.47,5.3,5.3,0,0,0,.62-.45.89.89,0,0,1,.4-.21.33.33,0,0,1,.15,0,.24.24,0,0,1,.09.17,1,1,0,0,1,.07.27c0,.12,0,.27,0,.42m4.76-12.57a1.28,1.28,0,0,1-.25.93,1.4,1.4,0,0,1-1,.25,1.36,1.36,0,0,1-.94-.24,1.28,1.28,0,0,1-.25-.92A1.27,1.27,0,0,1,90,166a1.35,1.35,0,0,1,1-.25,1.32,1.32,0,0,1,.93.24,1.22,1.22,0,0,1,.25.91m-.22,14.19a.2.2,0,0,1,0,.14.27.27,0,0,1-.15.12,1.33,1.33,0,0,1-.3.07l-.47,0-.49,0a1.54,1.54,0,0,1-.29-.07.34.34,0,0,1-.16-.12.35.35,0,0,1,0-.14V170.52a.33.33,0,0,1,0-.15.43.43,0,0,1,.16-.13c.08,0,.17,0,.29-.07l.49,0,.47,0a2.28,2.28,0,0,1,.3.07.33.33,0,0,1,.15.13.2.2,0,0,1,0,.15Zm10.24-2.9a3.38,3.38,0,0,1-.28,1.45,3.2,3.2,0,0,1-.86,1.07,3.9,3.9,0,0,1-1.32.66,6.08,6.08,0,0,1-1.7.22,6.39,6.39,0,0,1-1.08-.08,6,6,0,0,1-.91-.23,3.89,3.89,0,0,1-.7-.29,1.72,1.72,0,0,1-.41-.26.64.64,0,0,1-.18-.31,2,2,0,0,1-.06-.59c0-.15,0-.28,0-.37a2.3,2.3,0,0,1,.07-.26.27.27,0,0,1,.1-.13.25.25,0,0,1,.14,0,.81.81,0,0,1,.38.16c.18.1.39.22.64.34a4.73,4.73,0,0,0,.88.35,3.65,3.65,0,0,0,1.16.16,4.2,4.2,0,0,0,.9-.1,2.09,2.09,0,0,0,.69-.32,1.26,1.26,0,0,0,.45-.52,1.5,1.5,0,0,0,.18-.76,1.2,1.2,0,0,0-.24-.75,2.31,2.31,0,0,0-.61-.54,5,5,0,0,0-.84-.41l-1-.38c-.32-.15-.66-.29-1-.46a3.46,3.46,0,0,1-.87-.63,2.77,2.77,0,0,1-.6-.86,2.81,2.81,0,0,1-.24-1.21,2.76,2.76,0,0,1,.26-1.2,2.56,2.56,0,0,1,.71-1,3.79,3.79,0,0,1,1.22-.7,5.26,5.26,0,0,1,1.69-.26,4.78,4.78,0,0,1,.84.08c.29.05.55.11.78.17a4.24,4.24,0,0,1,.56.25,2.13,2.13,0,0,1,.38.2.91.91,0,0,1,.17.16,1.15,1.15,0,0,1,.06.17c0,.05,0,.13,0,.21s0,.21,0,.33a3.12,3.12,0,0,1,0,.33.59.59,0,0,1-.06.26.24.24,0,0,1-.11.13.28.28,0,0,1-.12,0,.59.59,0,0,1-.3-.13c-.15-.08-.3-.18-.53-.28s-.46-.18-.74-.28a3.71,3.71,0,0,0-1.87,0,1.86,1.86,0,0,0-.61.33,1.22,1.22,0,0,0-.37.48,1.63,1.63,0,0,0-.12.62,1.35,1.35,0,0,0,.23.77,2.37,2.37,0,0,0,.62.55,5,5,0,0,0,.87.42l1,.39a8.83,8.83,0,0,1,1,.45,3,3,0,0,1,.87.6,2.75,2.75,0,0,1,.61.84,2.86,2.86,0,0,1,.22,1.18m5-11.29c0,.46-.07.77-.27.93a1.34,1.34,0,0,1-.94.25,1.36,1.36,0,0,1-.94-.24,1.32,1.32,0,0,1-.27-.92,1,1,0,0,1,1.22-1.17,1.33,1.33,0,0,1,.94.24c.19.15.26.46.26.91m-.21,14.19a.28.28,0,0,1-.06.14.4.4,0,0,1-.16.12,1.11,1.11,0,0,1-.29.07l-.48,0-.48,0a1.67,1.67,0,0,1-.3-.07.27.27,0,0,1-.15-.12.35.35,0,0,1,0-.14V170.52a.33.33,0,0,1,0-.15.33.33,0,0,1,.15-.13c.08,0,.18,0,.3-.07l.48,0,.48,0a1.76,1.76,0,0,1,.29.07.53.53,0,0,1,.16.13.25.25,0,0,1,.06.15Zm13.45-5.43a7.88,7.88,0,0,1-.35,2.39,5.15,5.15,0,0,1-1,1.87,4.61,4.61,0,0,1-1.68,1.24,6,6,0,0,1-2.37.43,6.21,6.21,0,0,1-2.29-.38,4.35,4.35,0,0,1-1.62-1.13,4.91,4.91,0,0,1-1-1.81,8.79,8.79,0,0,1-.31-2.4,8.14,8.14,0,0,1,.34-2.38,5.23,5.23,0,0,1,1-1.88,4.55,4.55,0,0,1,1.7-1.23,6.11,6.11,0,0,1,2.37-.44,6.36,6.36,0,0,1,2.28.4,4.43,4.43,0,0,1,1.63,1.13,5.1,5.1,0,0,1,1,1.8,8.33,8.33,0,0,1,.32,2.39m-2,.13a8.58,8.58,0,0,0-.16-1.63,4.3,4.3,0,0,0-.52-1.34,2.68,2.68,0,0,0-1-.91,3.36,3.36,0,0,0-1.58-.33,3.41,3.41,0,0,0-1.49.3,2.7,2.7,0,0,0-1,.87,3.7,3.7,0,0,0-.59,1.32,5.86,5.86,0,0,0-.21,1.68,6.57,6.57,0,0,0,.18,1.63,3.4,3.4,0,0,0,.53,1.34,2.53,2.53,0,0,0,1,.9A3.32,3.32,0,0,0,115,180a3.14,3.14,0,0,0,1.48-.31,2.72,2.72,0,0,0,1-.86,3.24,3.24,0,0,0,.59-1.33,6.22,6.22,0,0,0,.2-1.67m14,5.3a.39.39,0,0,1,0,.14.36.36,0,0,1-.15.12,1.33,1.33,0,0,1-.3.07l-.48,0-.47,0a1.21,1.21,0,0,1-.3-.07.33.33,0,0,1-.14-.12.23.23,0,0,1-.07-.14v-6.22a6.29,6.29,0,0,0-.13-1.45,2.9,2.9,0,0,0-.41-1,1.9,1.9,0,0,0-.7-.62,2.29,2.29,0,0,0-1-.2,2.54,2.54,0,0,0-1.46.51,7.79,7.79,0,0,0-1.54,1.52v7.42a.27.27,0,0,1-.05.14.31.31,0,0,1-.15.12,1.67,1.67,0,0,1-.3.07l-.48,0-.47,0a1.33,1.33,0,0,1-.3-.07.27.27,0,0,1-.15-.12.25.25,0,0,1,0-.14V170.52a.33.33,0,0,1,0-.15.3.3,0,0,1,.14-.13l.27-.07.45,0,.43,0a1.38,1.38,0,0,1,.26.07.44.44,0,0,1,.14.13.33.33,0,0,1,0,.15v1.4a6.77,6.77,0,0,1,1.79-1.46,3.88,3.88,0,0,1,1.8-.48,3.94,3.94,0,0,1,1.78.37,3,3,0,0,1,1.18,1,4.25,4.25,0,0,1,.65,1.41,8.28,8.28,0,0,1,.19,1.93ZM156.2,170.5a1.54,1.54,0,0,1,0,.19,2.26,2.26,0,0,1-.08.3L153,181.06a.48.48,0,0,1-.12.21.44.44,0,0,1-.2.13,2.54,2.54,0,0,1-.38.06l-.59,0-.61,0a2.47,2.47,0,0,1-.4-.07.42.42,0,0,1-.21-.13.4.4,0,0,1-.11-.2l-2.23-7.69,0-.11,0,.11L146,181.06a.47.47,0,0,1-.11.21.67.67,0,0,1-.22.13,4,4,0,0,1-.41.06l-.58,0-.61,0a3.45,3.45,0,0,1-.39-.07.5.5,0,0,1-.2-.13.67.67,0,0,1-.12-.2L140.28,171a2.43,2.43,0,0,1-.09-.3,1.54,1.54,0,0,1,0-.19.26.26,0,0,1,.05-.17.19.19,0,0,1,.16-.1.62.62,0,0,1,.29-.06l.47,0,.52,0a1.41,1.41,0,0,1,.31.06.27.27,0,0,1,.17.12c0,.05.05.11.08.17l2.55,8.75,0,.1,0-.1,2.36-8.75a.28.28,0,0,1,.07-.17.25.25,0,0,1,.16-.12,1.2,1.2,0,0,1,.28-.06l.47,0,.47,0a1.76,1.76,0,0,1,.3.06.18.18,0,0,1,.13.12.31.31,0,0,1,.08.15l2.54,8.77,0,.1,0-.1,2.51-8.75a.32.32,0,0,1,.09-.17.26.26,0,0,1,.15-.12,1.7,1.7,0,0,1,.31-.06l.51,0,.45,0a.82.82,0,0,1,.28.06.25.25,0,0,1,.17.27m4.58-3.56a1.23,1.23,0,0,1-.25.93,1.35,1.35,0,0,1-.95.25,1.33,1.33,0,0,1-.93-.24,1.23,1.23,0,0,1-.27-.92,1.22,1.22,0,0,1,.27-.92,1.29,1.29,0,0,1,.95-.25,1.36,1.36,0,0,1,1,.24,1.28,1.28,0,0,1,.23.91m-.21,14.19a.27.27,0,0,1,0,.14.33.33,0,0,1-.14.12,1.56,1.56,0,0,1-.32.07l-.47,0-.47,0a1.8,1.8,0,0,1-.31-.07.36.36,0,0,1-.15-.12.37.37,0,0,1,0-.14V170.52a.33.33,0,0,1,0-.15.49.49,0,0,1,.15-.13c.08,0,.19,0,.31-.07l.47,0,.47,0a2.74,2.74,0,0,1,.32.07.44.44,0,0,1,.14.13.25.25,0,0,1,0,.15Zm5.54,0a.25.25,0,0,1,0,.14.52.52,0,0,1-.17.12,1.37,1.37,0,0,1-.29.07l-.49,0-.47,0-.31-.07a.28.28,0,0,1-.14-.12.25.25,0,0,1,0-.14V165.39a.31.31,0,0,1,0-.17.34.34,0,0,1,.14-.12,1.29,1.29,0,0,1,.31-.07c.12,0,.28,0,.47,0s.36,0,.49,0a1,1,0,0,1,.29.07.74.74,0,0,1,.17.12.31.31,0,0,1,0,.17Zm5.52,0a.16.16,0,0,1,0,.14.27.27,0,0,1-.15.12,1.23,1.23,0,0,1-.29.07l-.49,0-.46,0a1.21,1.21,0,0,1-.3-.07.26.26,0,0,1-.16-.12.25.25,0,0,1,0-.14V165.39a.27.27,0,0,1,.2-.29.88.88,0,0,1,.3-.07c.12,0,.28,0,.46,0s.35,0,.49,0a.88.88,0,0,1,.29.07.32.32,0,0,1,.15.12.21.21,0,0,1,0,.17Zm18.82-5.44a9.77,9.77,0,0,1-.29,2.46,5.82,5.82,0,0,1-.9,1.89,3.8,3.8,0,0,1-1.43,1.18,4.31,4.31,0,0,1-2,.41,3.76,3.76,0,0,1-.92-.1,3,3,0,0,1-.87-.32,4.73,4.73,0,0,1-.81-.56c-.28-.23-.56-.51-.89-.83v1.31a.34.34,0,0,1,0,.16.35.35,0,0,1-.17.1.94.94,0,0,1-.26.07l-.4,0-.41,0a1.05,1.05,0,0,1-.26-.07.33.33,0,0,1-.15-.1.55.55,0,0,1,0-.16V165.39a.31.31,0,0,1,0-.17.52.52,0,0,1,.16-.12,1,1,0,0,1,.3-.07c.12,0,.28,0,.47,0s.35,0,.48,0a1.19,1.19,0,0,1,.31.07.34.34,0,0,1,.14.12.25.25,0,0,1,0,.17v6.34a9,9,0,0,1,.91-.81,6.24,6.24,0,0,1,.86-.54,4.33,4.33,0,0,1,.85-.3,4.43,4.43,0,0,1,.9-.1,4.05,4.05,0,0,1,2,.47,4.12,4.12,0,0,1,1.33,1.23,5.19,5.19,0,0,1,.75,1.81,10.3,10.3,0,0,1,.24,2.2m-2,.21a10.22,10.22,0,0,0-.12-1.58,4.47,4.47,0,0,0-.45-1.35,2.67,2.67,0,0,0-.81-.95,2.26,2.26,0,0,0-1.29-.36,2.84,2.84,0,0,0-.72.1,3.27,3.27,0,0,0-.76.36,6.57,6.57,0,0,0-.8.64,10.29,10.29,0,0,0-.86,1V178a8.11,8.11,0,0,0,1.54,1.49,2.69,2.69,0,0,0,1.52.51,2.2,2.2,0,0,0,1.27-.35,2.82,2.82,0,0,0,.85-.93,4,4,0,0,0,.46-1.32,6.48,6.48,0,0,0,.17-1.46m11.13-4.69c0,.18,0,.33,0,.44a1,1,0,0,1-.06.28.27.27,0,0,1-.08.15.17.17,0,0,1-.14.06.53.53,0,0,1-.23-.06l-.31-.11-.38-.1a3.39,3.39,0,0,0-.47-.05,1.36,1.36,0,0,0-.58.13,2,2,0,0,0-.58.38,4.41,4.41,0,0,0-.66.73,12,12,0,0,0-.77,1.08v7a.25.25,0,0,1,0,.14.31.31,0,0,1-.15.12,1.37,1.37,0,0,1-.29.07l-.48,0-.48,0a1.33,1.33,0,0,1-.3-.07.24.24,0,0,1-.15-.12.37.37,0,0,1,0-.14V170.52a.57.57,0,0,1,0-.15.36.36,0,0,1,.14-.13,1.26,1.26,0,0,1,.28-.07l.43,0,.44,0a1,1,0,0,1,.25.07.39.39,0,0,1,.15.13.33.33,0,0,1,0,.15v1.54a7.56,7.56,0,0,1,.81-1,4.48,4.48,0,0,1,.72-.64,2.85,2.85,0,0,1,.68-.31,2.66,2.66,0,0,1,.68-.1l.35,0a3.28,3.28,0,0,1,.41.08,3.75,3.75,0,0,1,.39.09.88.88,0,0,1,.24.12.74.74,0,0,1,.09.12.51.51,0,0,0,0,.14.69.69,0,0,1,0,.23c0,.12,0,.25,0,.43m4.39-4.27a1.28,1.28,0,0,1-.25.93,1.38,1.38,0,0,1-1,.25,1.33,1.33,0,0,1-.93-.24,1.23,1.23,0,0,1-.26-.92,1.22,1.22,0,0,1,.26-.92,1.33,1.33,0,0,1,1-.25,1.28,1.28,0,0,1,.93.24,1.22,1.22,0,0,1,.25.91m-.22,14.19a.25.25,0,0,1,0,.14.36.36,0,0,1-.15.12,1.33,1.33,0,0,1-.3.07l-.49,0-.46,0a1.61,1.61,0,0,1-.31-.07.31.31,0,0,1-.15-.12.25.25,0,0,1,0-.14V170.52a.24.24,0,0,1,0-.15.39.39,0,0,1,.15-.13,3,3,0,0,1,.31-.07l.46,0,.49,0a2.28,2.28,0,0,1,.3.07.49.49,0,0,1,.15.13.24.24,0,0,1,0,.15Zm12.73,0a.2.2,0,0,1-.05.14.27.27,0,0,1-.15.12,1.21,1.21,0,0,1-.3.07l-.47,0-.48,0a1.37,1.37,0,0,1-.29-.07.27.27,0,0,1-.21-.26v-6.22a6.29,6.29,0,0,0-.13-1.45,3.13,3.13,0,0,0-.42-1,1.87,1.87,0,0,0-.69-.62,2.28,2.28,0,0,0-1-.2,2.54,2.54,0,0,0-1.46.51,8.69,8.69,0,0,0-1.54,1.52v7.42a.2.2,0,0,1-.05.14.31.31,0,0,1-.15.12,1.23,1.23,0,0,1-.29.07l-.48,0-.48,0a1.67,1.67,0,0,1-.3-.07c-.06,0-.14-.07-.15-.12a.37.37,0,0,1,0-.14V170.52a.33.33,0,0,1,0-.15c0-.05.07-.09.13-.13a1.26,1.26,0,0,1,.28-.07l.43,0,.44,0a1.2,1.2,0,0,1,.26.07.44.44,0,0,1,.14.13.33.33,0,0,1,0,.15v1.4a6.74,6.74,0,0,1,1.78-1.46,3.89,3.89,0,0,1,1.81-.48,4,4,0,0,1,1.79.37,3.24,3.24,0,0,1,1.17,1,4.22,4.22,0,0,1,.63,1.41,8.23,8.23,0,0,1,.2,1.93ZM228.89,171a1.11,1.11,0,0,1-.12.59.35.35,0,0,1-.29.19H227a2.47,2.47,0,0,1,.58.93,3.77,3.77,0,0,1,.15,1.06,4.3,4.3,0,0,1-.28,1.62,3.34,3.34,0,0,1-.84,1.21,4.09,4.09,0,0,1-1.31.74,5.22,5.22,0,0,1-1.67.26,4.46,4.46,0,0,1-1.23-.17,2.63,2.63,0,0,1-.92-.43,2.43,2.43,0,0,0-.34.48,1.36,1.36,0,0,0-.13.63.8.8,0,0,0,.38.68,1.92,1.92,0,0,0,1,.29l2.78.12a6,6,0,0,1,1.45.22,3.22,3.22,0,0,1,1.13.55,2.4,2.4,0,0,1,.76.89,2.57,2.57,0,0,1,.27,1.21,3.13,3.13,0,0,1-.3,1.39,3.06,3.06,0,0,1-.94,1.16,4.76,4.76,0,0,1-1.61.8,8.69,8.69,0,0,1-2.31.28,10,10,0,0,1-2.2-.22,4.52,4.52,0,0,1-1.47-.6,2.39,2.39,0,0,1-.85-.89,2.72,2.72,0,0,1-.25-1.14,2.78,2.78,0,0,1,.1-.76,2.71,2.71,0,0,1,.28-.69,4,4,0,0,1,.48-.63c.2-.2.43-.4.67-.6a1.85,1.85,0,0,1-.84-.73,1.78,1.78,0,0,1-.29-1,2.72,2.72,0,0,1,.3-1.28,3.65,3.65,0,0,1,.74-1,3.07,3.07,0,0,1-.58-1,3.52,3.52,0,0,1-.21-1.32,4.39,4.39,0,0,1,.29-1.63,3.53,3.53,0,0,1,.85-1.21,3.81,3.81,0,0,1,1.32-.76,4.8,4.8,0,0,1,1.65-.27,6.37,6.37,0,0,1,.9.06,6,6,0,0,1,.78.14h3.21a.32.32,0,0,1,.3.2,1.28,1.28,0,0,1,.11.6m-2.08,11.18a1.22,1.22,0,0,0-.54-1.06,3,3,0,0,0-1.52-.4l-2.75-.08a7.73,7.73,0,0,0-.63.55,4.78,4.78,0,0,0-.38.51,1.71,1.71,0,0,0-.19.48,1.91,1.91,0,0,0,0,.48,1.23,1.23,0,0,0,.76,1.16,5,5,0,0,0,2.18.39,6,6,0,0,0,1.47-.16,2.86,2.86,0,0,0,1-.46,1.53,1.53,0,0,0,.53-.65,1.78,1.78,0,0,0,.15-.76m-1-8.4a2.33,2.33,0,0,0-.6-1.68,2.22,2.22,0,0,0-1.69-.62,2.44,2.44,0,0,0-1,.2,2,2,0,0,0-.7.52,2.18,2.18,0,0,0-.42.75,3,3,0,0,0-.13.91,2.26,2.26,0,0,0,.6,1.65,2.3,2.3,0,0,0,1.67.6,2.55,2.55,0,0,0,1-.19,1.82,1.82,0,0,0,.71-.51,2.17,2.17,0,0,0,.41-.75,3.17,3.17,0,0,0,.13-.88m19.41,7.62-1.4,3.89a.55.55,0,0,1-.37.3,4.76,4.76,0,0,1-1.36.07.94.94,0,0,1-.31-.1.28.28,0,0,1-.1-.2.49.49,0,0,1,.06-.27l1.46-3.69a.48.48,0,0,1-.2-.15.49.49,0,0,1-.13-.23l-3.78-10.13a1,1,0,0,1-.11-.38.28.28,0,0,1,.11-.23.52.52,0,0,1,.29-.1,4.22,4.22,0,0,1,.57,0l.56,0a1.54,1.54,0,0,1,.31.06.45.45,0,0,1,.18.14,2.55,2.55,0,0,1,.1.25l3.05,8.5h0l2.94-8.56a.56.56,0,0,1,.16-.28.6.6,0,0,1,.31-.09,3.71,3.71,0,0,1,.56,0,3.78,3.78,0,0,1,.55,0,.54.54,0,0,1,.31.1.25.25,0,0,1,.1.23,1.34,1.34,0,0,1-.06.36ZM261,175.7a9,9,0,0,1-.33,2.39,5.66,5.66,0,0,1-1,1.87,4.86,4.86,0,0,1-1.7,1.24,5.88,5.88,0,0,1-2.36.43,6.12,6.12,0,0,1-2.28-.38,4.19,4.19,0,0,1-1.62-1.13,4.77,4.77,0,0,1-1-1.81,8.4,8.4,0,0,1-.32-2.4,8.15,8.15,0,0,1,.33-2.38,5.39,5.39,0,0,1,1-1.88,4.85,4.85,0,0,1,1.69-1.23,6.2,6.2,0,0,1,2.38-.44,6.41,6.41,0,0,1,2.29.4,4.16,4.16,0,0,1,1.62,1.13,5.1,5.1,0,0,1,1,1.8,7.67,7.67,0,0,1,.33,2.39m-2,.13a7.83,7.83,0,0,0-.18-1.63,4.07,4.07,0,0,0-.52-1.34,2.51,2.51,0,0,0-1-.91,3.36,3.36,0,0,0-1.58-.33,3.41,3.41,0,0,0-1.49.3,2.53,2.53,0,0,0-1,.87,3.73,3.73,0,0,0-.61,1.32,6.65,6.65,0,0,0-.21,1.68,7.08,7.08,0,0,0,.18,1.63,3.74,3.74,0,0,0,.54,1.34,2.4,2.4,0,0,0,1,.9,3.27,3.27,0,0,0,1.58.34,3.11,3.11,0,0,0,1.48-.31,2.72,2.72,0,0,0,1-.86,3.54,3.54,0,0,0,.6-1.33,6.65,6.65,0,0,0,.2-1.67m14,5.3a.37.37,0,0,1,0,.14.31.31,0,0,1-.15.12,1.26,1.26,0,0,1-.28.07l-.42,0-.44,0a1.15,1.15,0,0,1-.27-.07.26.26,0,0,1-.13-.12.35.35,0,0,1,0-.14v-1.41a6.69,6.69,0,0,1-1.81,1.45,3.79,3.79,0,0,1-1.79.46,4,4,0,0,1-1.77-.34,3.26,3.26,0,0,1-1.19-1,3.8,3.8,0,0,1-.64-1.41,8.44,8.44,0,0,1-.19-2v-6.43a.24.24,0,0,1,0-.15.28.28,0,0,1,.15-.13,1.8,1.8,0,0,1,.31-.07l.47,0,.48,0a1.23,1.23,0,0,1,.29.07.4.4,0,0,1,.17.13.25.25,0,0,1,0,.15v6.17a6.08,6.08,0,0,0,.13,1.49,2.57,2.57,0,0,0,.4.95,2.05,2.05,0,0,0,.72.62,2.15,2.15,0,0,0,1,.21,2.49,2.49,0,0,0,1.45-.51,8.84,8.84,0,0,0,1.56-1.53v-7.4a.34.34,0,0,1,0-.15.52.52,0,0,1,.18-.13,1.31,1.31,0,0,1,.31-.07l.47,0,.46,0,.31.07c.05,0,.12.08.14.13a.2.2,0,0,1,.06.15Zm9.79-9.92c0,.18,0,.33,0,.44s0,.21-.05.28a.35.35,0,0,1-.08.15.2.2,0,0,1-.14.06.69.69,0,0,1-.25-.06l-.29-.11-.4-.1a2.94,2.94,0,0,0-.45-.05,1.4,1.4,0,0,0-.59.13,2.15,2.15,0,0,0-.59.38,5.52,5.52,0,0,0-.66.73c-.23.29-.46.65-.75,1.08v7a.19.19,0,0,1,0,.14.36.36,0,0,1-.15.12,1.48,1.48,0,0,1-.3.07l-.49,0-.47,0a1.21,1.21,0,0,1-.3-.07.31.31,0,0,1-.15-.12.37.37,0,0,1,0-.14V170.52a.57.57,0,0,1,0-.15.44.44,0,0,1,.14-.13l.28-.07.44,0,.42,0a.77.77,0,0,1,.26.07.49.49,0,0,1,.15.13.24.24,0,0,1,0,.15v1.54a6.85,6.85,0,0,1,.81-1,5,5,0,0,1,.72-.64,2.51,2.51,0,0,1,.7-.31,2.54,2.54,0,0,1,.68-.1l.34,0a2.7,2.7,0,0,1,.39.08,2.84,2.84,0,0,1,.39.09.72.72,0,0,1,.25.12.41.41,0,0,1,.09.12.29.29,0,0,1,0,.14.69.69,0,0,1,0,.23c0,.12,0,.25,0,.43m14.37,7a3.39,3.39,0,0,1-.31,1.45,3,3,0,0,1-.86,1.07,3.85,3.85,0,0,1-1.31.66,6.18,6.18,0,0,1-1.7.22,6.31,6.31,0,0,1-1.08-.08,5.46,5.46,0,0,1-.91-.23,3.61,3.61,0,0,1-.7-.29,1.53,1.53,0,0,1-.41-.26.76.76,0,0,1-.2-.31,4.34,4.34,0,0,1-.05-.59,1.31,1.31,0,0,1,0-.37,1.33,1.33,0,0,1,.05-.26.49.49,0,0,1,.1-.13.25.25,0,0,1,.14,0,.77.77,0,0,1,.38.16c.19.1.39.22.65.34a4.9,4.9,0,0,0,.87.35,3.72,3.72,0,0,0,1.17.16,4.11,4.11,0,0,0,.89-.1,2.09,2.09,0,0,0,.69-.32,1.19,1.19,0,0,0,.45-.52,1.4,1.4,0,0,0,.17-.76,1.19,1.19,0,0,0-.23-.75,2.26,2.26,0,0,0-.6-.54,4.47,4.47,0,0,0-.85-.41l-1-.38c-.34-.15-.67-.29-1-.46a4.31,4.31,0,0,1-.86-.63,2.77,2.77,0,0,1-.6-.86,2.67,2.67,0,0,1-.24-1.21,3.07,3.07,0,0,1,.25-1.2,2.84,2.84,0,0,1,.73-1,3.74,3.74,0,0,1,1.19-.7,5.54,5.54,0,0,1,1.71-.26,4.78,4.78,0,0,1,.84.08,7.64,7.64,0,0,1,.77.17,2.71,2.71,0,0,1,.58.25,2.56,2.56,0,0,1,.38.2,1.17,1.17,0,0,1,.16.16,1.15,1.15,0,0,1,.06.17c0,.05,0,.13,0,.21s0,.21,0,.33,0,.25,0,.33a1.05,1.05,0,0,1-.07.26.27.27,0,0,1-.1.13.28.28,0,0,1-.12,0,.59.59,0,0,1-.31-.13c-.14-.08-.31-.18-.52-.28l-.75-.28a3.71,3.71,0,0,0-1-.13,3.53,3.53,0,0,0-.86.11,1.87,1.87,0,0,0-.63.33,1.44,1.44,0,0,0-.37.48,1.84,1.84,0,0,0-.11.62,1.21,1.21,0,0,0,.23.77,2.09,2.09,0,0,0,.62.55,4.59,4.59,0,0,0,.86.42l1,.39a8.68,8.68,0,0,1,1,.45,3.4,3.4,0,0,1,.89.6,2.73,2.73,0,0,1,.6.84,2.85,2.85,0,0,1,.24,1.18m10.75,2.9a.25.25,0,0,1-.08.21.57.57,0,0,1-.26.1,2,2,0,0,1-.47,0,2.17,2.17,0,0,1-.5,0,.71.71,0,0,1-.28-.1.29.29,0,0,1-.08-.21v-1.06a5.13,5.13,0,0,1-1.54,1.15,4.06,4.06,0,0,1-1.81.41,5.17,5.17,0,0,1-1.52-.21,3.16,3.16,0,0,1-1.91-1.63,3.77,3.77,0,0,1-.26-1.38,3.33,3.33,0,0,1,.37-1.56,2.91,2.91,0,0,1,1.06-1.09,5.14,5.14,0,0,1,1.66-.65,10.69,10.69,0,0,1,2.23-.23h1.47v-.82a3.66,3.66,0,0,0-.13-1.09,2,2,0,0,0-.41-.77,1.85,1.85,0,0,0-.76-.47,3.38,3.38,0,0,0-1.13-.16,4.33,4.33,0,0,0-1.29.17,6.35,6.35,0,0,0-1,.38,7.76,7.76,0,0,0-.72.37.91.91,0,0,1-.44.17.27.27,0,0,1-.16,0,.49.49,0,0,1-.13-.15,1,1,0,0,1-.07-.24,1.62,1.62,0,0,1,0-.33,2.92,2.92,0,0,1,0-.46.67.67,0,0,1,.19-.32,2.87,2.87,0,0,1,.56-.36,6.26,6.26,0,0,1,.89-.38,7.81,7.81,0,0,1,1.11-.28,6.21,6.21,0,0,1,1.21-.12,6.77,6.77,0,0,1,1.95.26,3.15,3.15,0,0,1,1.3.77,3,3,0,0,1,.72,1.24,5.36,5.36,0,0,1,.21,1.73Zm-1.92-4.83h-1.67a6.38,6.38,0,0,0-1.39.13,2.77,2.77,0,0,0-1,.39,1.6,1.6,0,0,0-.58.64,2.08,2.08,0,0,0-.19.85,1.74,1.74,0,0,0,.54,1.32,2.05,2.05,0,0,0,1.47.49,2.73,2.73,0,0,0,1.41-.39,6.59,6.59,0,0,0,1.38-1.18Zm14.52-6.09a.6.6,0,0,1,.48.16.73.73,0,0,1,.14.47v10.29a.27.27,0,0,1,0,.14.43.43,0,0,1-.17.12,1.33,1.33,0,0,1-.3.07l-.45,0-.5,0a1.91,1.91,0,0,1-.3-.07.44.44,0,0,1-.15-.12.27.27,0,0,1-.05-.14v-9.31h-5.47v5.91a3.26,3.26,0,0,0,.32,1.66,1.2,1.2,0,0,0,1.15.56,3.47,3.47,0,0,0,.49,0l.36-.12c.13,0,.21-.09.3-.12a.64.64,0,0,1,.22,0l.1,0a.2.2,0,0,1,.08.11,1.46,1.46,0,0,1,.06.23c0,.09,0,.21,0,.35a2.47,2.47,0,0,1-.05.54.79.79,0,0,1-.13.29,1.76,1.76,0,0,1-.3.19,4.33,4.33,0,0,1-.42.13c-.15,0-.34.06-.52.09a4.71,4.71,0,0,1-.53,0,4.26,4.26,0,0,1-1.43-.22,2.18,2.18,0,0,1-1-.66,2.82,2.82,0,0,1-.55-1.11,6.38,6.38,0,0,1-.16-1.59v-6.21h-1.49a.34.34,0,0,1-.3-.19,1.59,1.59,0,0,1-.09-.6,2.09,2.09,0,0,1,0-.38c0-.1,0-.19.06-.26a.47.47,0,0,1,.14-.14.44.44,0,0,1,.18,0h1.47V167.7a.41.41,0,0,1,0-.16.58.58,0,0,1,.16-.13,1.33,1.33,0,0,1,.3-.07l.47,0,.49,0a1.26,1.26,0,0,1,.28.07.67.67,0,0,1,.17.13.43.43,0,0,1,0,.16v2.51Zm.83-3.27a1.28,1.28,0,0,1-.25.93,1.38,1.38,0,0,1-1,.25,1.35,1.35,0,0,1-.93-.24,1.23,1.23,0,0,1-.26-.92,1.22,1.22,0,0,1,.26-.92,1.3,1.3,0,0,1,1-.25,1.32,1.32,0,0,1,.93.24,1.22,1.22,0,0,1,.25.91m10.06,11.29a3.39,3.39,0,0,1-.3,1.45,3,3,0,0,1-.86,1.07,4.09,4.09,0,0,1-1.32.66,6.06,6.06,0,0,1-1.69.22,6,6,0,0,1-1.07-.08,6.32,6.32,0,0,1-.93-.23,3.77,3.77,0,0,1-.69-.29,1.62,1.62,0,0,1-.42-.26.87.87,0,0,1-.2-.31,3.27,3.27,0,0,1,0-.59c0-.15,0-.28,0-.37a2.61,2.61,0,0,1,.06-.26.5.5,0,0,1,.11-.13.25.25,0,0,1,.14,0,.91.91,0,0,1,.4.16c.16.1.37.22.61.34a5.9,5.9,0,0,0,.89.35,3.74,3.74,0,0,0,1.16.16,4,4,0,0,0,.89-.1,2,2,0,0,0,.7-.32,1.21,1.21,0,0,0,.46-.52,1.74,1.74,0,0,0,.17-.76,1.33,1.33,0,0,0-.23-.75,2.48,2.48,0,0,0-.61-.54,4.57,4.57,0,0,0-.86-.41l-1-.38c-.33-.15-.65-.29-1-.46a4.25,4.25,0,0,1-.85-.63,3.44,3.44,0,0,1-.62-.86,3.36,3.36,0,0,1-.21-1.21,2.9,2.9,0,0,1,.25-1.2,2.56,2.56,0,0,1,.71-1,3.69,3.69,0,0,1,1.22-.7,5.31,5.31,0,0,1,1.69-.26,4.78,4.78,0,0,1,.84.08c.29.05.54.11.78.17a3.45,3.45,0,0,1,.57.25,1.82,1.82,0,0,1,.38.2l.16.16a.58.58,0,0,1,.06.17,1,1,0,0,1,0,.21c0,.1,0,.21,0,.33a3.12,3.12,0,0,1,0,.33.74.74,0,0,1-.07.26.27.27,0,0,1-.1.13.38.38,0,0,1-.13,0,.63.63,0,0,1-.3-.13c-.14-.08-.31-.18-.53-.28s-.46-.18-.74-.28a3.71,3.71,0,0,0-1-.13,3.53,3.53,0,0,0-.86.11,1.78,1.78,0,0,0-.63.33,1.41,1.41,0,0,0-.36.48,1.63,1.63,0,0,0-.12.62,1.28,1.28,0,0,0,.23.77,2.28,2.28,0,0,0,.6.55,5.42,5.42,0,0,0,.87.42l1,.39c.31.13.64.28,1,.45a2.77,2.77,0,0,1,.85.6,2.38,2.38,0,0,1,.63.84,2.85,2.85,0,0,1,.23,1.18m8.37-12.07a1.24,1.24,0,0,1,0,.36,1,1,0,0,1-.05.22.18.18,0,0,1-.07.11.28.28,0,0,1-.13,0,.57.57,0,0,1-.21-.07l-.3-.11a2.91,2.91,0,0,0-.41-.12,3,3,0,0,0-.55-.05,1.82,1.82,0,0,0-.75.14,1.25,1.25,0,0,0-.5.44,2.45,2.45,0,0,0-.28.78,9.17,9.17,0,0,0-.08,1.16v1.15h2.39a.26.26,0,0,1,.14,0,.58.58,0,0,1,.12.14.54.54,0,0,1,.09.26,2.09,2.09,0,0,1,0,.38,1.12,1.12,0,0,1-.11.6c-.08.13-.15.19-.27.19h-2.39v9.31a.24.24,0,0,1,0,.14.37.37,0,0,1-.17.12,1.67,1.67,0,0,1-.3.07l-.47,0-.48,0a1.37,1.37,0,0,1-.29-.07.26.26,0,0,1-.16-.12.28.28,0,0,1-.06-.14v-9.31h-1.48a.3.3,0,0,1-.29-.19,1.24,1.24,0,0,1-.1-.6,2.09,2.09,0,0,1,0-.38.66.66,0,0,1,.07-.26.26.26,0,0,1,.11-.14.53.53,0,0,1,.18,0h1.48v-1.09a7.87,7.87,0,0,1,.22-1.9,3.27,3.27,0,0,1,.63-1.31,2.41,2.41,0,0,1,1.06-.75,4.37,4.37,0,0,1,1.52-.24,4.07,4.07,0,0,1,.79.08,3.94,3.94,0,0,1,.61.16,1.5,1.5,0,0,1,.3.16,1.18,1.18,0,0,1,.11.19,1,1,0,0,1,.06.27,2.18,2.18,0,0,1,0,.38m9.09,15a.27.27,0,0,1-.1.21.61.61,0,0,1-.27.1,1.84,1.84,0,0,1-.47,0,2.13,2.13,0,0,1-.49,0,.53.53,0,0,1-.27-.1.29.29,0,0,1-.08-.21v-1.06a5.21,5.21,0,0,1-1.56,1.15,4,4,0,0,1-1.81.41,5.17,5.17,0,0,1-1.52-.21,3.32,3.32,0,0,1-1.15-.64,2.78,2.78,0,0,1-.73-1,3.61,3.61,0,0,1,.09-2.94,3,3,0,0,1,1-1.09,5.52,5.52,0,0,1,1.69-.65,10.79,10.79,0,0,1,2.24-.23h1.44v-.82a4,4,0,0,0-.12-1.09,1.86,1.86,0,0,0-.42-.77,1.69,1.69,0,0,0-.75-.47,3.44,3.44,0,0,0-1.14-.16,4.27,4.27,0,0,0-1.28.17,6.12,6.12,0,0,0-1,.38c-.28.13-.52.26-.71.37a.91.91,0,0,1-.44.17.22.22,0,0,1-.15,0,.53.53,0,0,1-.15-.15,1,1,0,0,1-.07-.24,3.22,3.22,0,0,1,0-.33,2.13,2.13,0,0,1,0-.46.71.71,0,0,1,.21-.32,2.15,2.15,0,0,1,.54-.36,5.68,5.68,0,0,1,.91-.38,7.66,7.66,0,0,1,1.1-.28,6.28,6.28,0,0,1,1.21-.12,7,7,0,0,1,2,.26,3.11,3.11,0,0,1,1.29.77,2.89,2.89,0,0,1,.71,1.24,5.32,5.32,0,0,1,.24,1.73Zm-1.95-4.83h-1.65a6.26,6.26,0,0,0-1.39.13,2.81,2.81,0,0,0-1,.39,1.68,1.68,0,0,0-.58.64,2.08,2.08,0,0,0-.17.85,1.73,1.73,0,0,0,.52,1.32,2.1,2.1,0,0,0,1.47.49,2.68,2.68,0,0,0,1.42-.39,5.89,5.89,0,0,0,1.37-1.18ZM360,179.51c0,.13,0,.25,0,.35s0,.17,0,.24a1.59,1.59,0,0,1-.08.18,1.46,1.46,0,0,1-.17.22,2.88,2.88,0,0,1-.53.37,4.6,4.6,0,0,1-.77.38,5.87,5.87,0,0,1-1,.28,5.36,5.36,0,0,1-1.06.1,5.19,5.19,0,0,1-2-.37,3.86,3.86,0,0,1-1.48-1.1,5.06,5.06,0,0,1-.9-1.78,8.49,8.49,0,0,1-.31-2.43,8.34,8.34,0,0,1,.38-2.7,4.87,4.87,0,0,1,1.06-1.84,4,4,0,0,1,1.56-1.06,5.11,5.11,0,0,1,1.94-.35,4.71,4.71,0,0,1,1,.1,5.22,5.22,0,0,1,.88.25,4.67,4.67,0,0,1,.71.34,3.81,3.81,0,0,1,.46.35l.19.22a.64.64,0,0,1,.08.19,1.08,1.08,0,0,1,0,.27,3.33,3.33,0,0,1,0,.34,1.38,1.38,0,0,1-.1.64c-.09.13-.15.19-.26.19a.72.72,0,0,1-.42-.2,3,3,0,0,0-.58-.42,4.18,4.18,0,0,0-.85-.44,3.48,3.48,0,0,0-1.19-.2,2.49,2.49,0,0,0-2.16,1.09,5.63,5.63,0,0,0-.73,3.13,6.54,6.54,0,0,0,.2,1.79,3.72,3.72,0,0,0,.57,1.29,2.49,2.49,0,0,0,.91.77,3.38,3.38,0,0,0,2.45,0,3.86,3.86,0,0,0,.86-.47c.25-.16.46-.31.64-.45a.79.79,0,0,1,.39-.21.29.29,0,0,1,.14,0,.35.35,0,0,1,.1.17,1,1,0,0,1,.06.27c0,.12,0,.27,0,.42m11.82-9.3a.58.58,0,0,1,.48.16.68.68,0,0,1,.13.47v10.29a.25.25,0,0,1,0,.14.37.37,0,0,1-.17.12,1.11,1.11,0,0,1-.29.07l-.46,0-.49,0a1.54,1.54,0,0,1-.29-.07.37.37,0,0,1-.17-.12.27.27,0,0,1-.05-.14v-9.31h-5.49v5.91a3.6,3.6,0,0,0,.33,1.66,1.26,1.26,0,0,0,1.17.56,3.32,3.32,0,0,0,.48,0l.38-.12.28-.12a.59.59,0,0,1,.23,0l.09,0s.06,0,.1.11a2.07,2.07,0,0,1,0,.23,1.69,1.69,0,0,1,0,.35,3.31,3.31,0,0,1-.05.54.5.5,0,0,1-.15.29,1.21,1.21,0,0,1-.28.19l-.41.13-.53.09-.54,0a4.17,4.17,0,0,1-1.41-.22,2.1,2.1,0,0,1-1-.66,2.58,2.58,0,0,1-.55-1.11A6.89,6.89,0,0,1,363,178v-6.21h-1.5a.35.35,0,0,1-.29-.19,1.22,1.22,0,0,1-.11-.6c0-.15,0-.27,0-.38a2.38,2.38,0,0,0,.08-.26.94.94,0,0,1,.12-.14.65.65,0,0,1,.18,0H363V167.7a.29.29,0,0,1,0-.16,1.08,1.08,0,0,1,.15-.13,1.48,1.48,0,0,1,.3-.07l.47,0,.48,0a1.21,1.21,0,0,1,.3.07.69.69,0,0,1,.15.13.29.29,0,0,1,0,.16v2.51Zm.84-3.27a1.28,1.28,0,0,1-.25.93,1.4,1.4,0,0,1-1,.25,1.43,1.43,0,0,1-1-.24,1.39,1.39,0,0,1-.24-.92,1.31,1.31,0,0,1,.25-.92,1.35,1.35,0,0,1,1-.25,1.3,1.3,0,0,1,.94.24,1.22,1.22,0,0,1,.25.91m13.25,8.76a7.89,7.89,0,0,1-.34,2.39,4.81,4.81,0,0,1-2.7,3.11,6.09,6.09,0,0,1-2.38.43,6,6,0,0,1-2.27-.38,4.16,4.16,0,0,1-1.63-1.13,4.5,4.5,0,0,1-1-1.81,8,8,0,0,1-.33-2.4,7.82,7.82,0,0,1,.34-2.38,5.21,5.21,0,0,1,1-1.88,4.84,4.84,0,0,1,1.71-1.23,6.65,6.65,0,0,1,4.65,0,4.09,4.09,0,0,1,1.62,1.13,5,5,0,0,1,1,1.8,8.33,8.33,0,0,1,.32,2.39m-2,.13a7.84,7.84,0,0,0-.16-1.63,3.88,3.88,0,0,0-.53-1.34,2.44,2.44,0,0,0-1-.91,3.21,3.21,0,0,0-1.55-.33,3.43,3.43,0,0,0-1.5.3,2.78,2.78,0,0,0-1,.87,4.1,4.1,0,0,0-.6,1.32,6.67,6.67,0,0,0-.2,1.68,7.68,7.68,0,0,0,.18,1.63,3.91,3.91,0,0,0,.52,1.34,2.58,2.58,0,0,0,1,.9,3.1,3.1,0,0,0,1.55.34,3.15,3.15,0,0,0,1.49-.31,2.77,2.77,0,0,0,1-.86,3.39,3.39,0,0,0,.6-1.33,6.66,6.66,0,0,0,.19-1.67m14,5.3a.22.22,0,0,1-.06.14.26.26,0,0,1-.16.12,1.23,1.23,0,0,1-.29.07l-.48,0-.48,0a1.26,1.26,0,0,1-.28-.07.37.37,0,0,1-.17-.12.35.35,0,0,1,0-.14v-6.22a6.81,6.81,0,0,0-.14-1.45,3.39,3.39,0,0,0-.42-1,1.9,1.9,0,0,0-.7-.62,2.31,2.31,0,0,0-1-.2,2.59,2.59,0,0,0-1.46.51,8,8,0,0,0-1.52,1.52v7.42a.27.27,0,0,1-.05.14.53.53,0,0,1-.14.12,1.73,1.73,0,0,1-.32.07l-.47,0-.48,0a1.8,1.8,0,0,1-.31-.07.28.28,0,0,1-.14-.12.27.27,0,0,1,0-.14V170.52a.3.3,0,0,1,.19-.28.94.94,0,0,1,.26-.07l.43,0,.45,0a1.2,1.2,0,0,1,.26.07.32.32,0,0,1,.13.13.25.25,0,0,1,.05.15v1.4a6.87,6.87,0,0,1,1.77-1.46,4,4,0,0,1,3.6-.11,3.24,3.24,0,0,1,1.17,1,3.71,3.71,0,0,1,.64,1.41,7.69,7.69,0,0,1,.21,1.93Z" transform="translate(0 -0.11)"/><polygon class="cls-2" points="146.7 77.5 146.7 79.94 146.5 99.05 146.7 125.1 125.36 125.1 125.57 96.61 125.32 79.21 125.36 77.5 146.7 77.5"/><path class="cls-2" d="M175.22,78.55l-.2,24.73.2,21a24.13,24.13,0,0,0,3,.25,21.62,21.62,0,0,0,7-1.23,22.18,22.18,0,0,0,6.34-3.31,23.81,23.81,0,0,0,3.66-3.62,25.45,25.45,0,0,0,3.06-4.43c.45-.83.92-1.25,1.42-1.25.77,0,1.16.32,1.16,1s-.57,1.87-1.72,3.54a30.37,30.37,0,0,1-3.79,4.48,24.38,24.38,0,0,1-10.5,6,25.75,25.75,0,0,1-7,1,24.84,24.84,0,0,1-9.81-2.09,24.3,24.3,0,0,1-12-10.49A25.3,25.3,0,0,1,167,78.62,25.56,25.56,0,0,1,195.25,83c2.33,2.16,3.49,3.73,3.49,4.67a.9.9,0,0,1-.35.69,1.07,1.07,0,0,1-.77.32c-.46,0-1-.45-1.66-1.36a21.12,21.12,0,0,0-7.91-6.58,23.26,23.26,0,0,0-10.38-2.42,12.19,12.19,0,0,0-2.45.25" transform="translate(0 -0.11)"/><path class="cls-2" d="M301.87,100.78V95l-.07-9.25,0-4.23,0-2.65c0-1.26.42-1.88,1.29-1.88a1.22,1.22,0,0,1,1.07.43,3.33,3.33,0,0,1,.28,1.65v.49c0,.49,0,1.3,0,2.41l-.14,11.75-.09,10.78.08,11.33.12,11.38q-7.19-4.5-21-12.44t-22.43-12.46l.06,1.69.34,18,0,2.41c0,1-.48,1.49-1.41,1.49s-1.42-.61-1.42-1.84l0-2.44,0-4,.14-17.89-.28-24.09q14.12,8.75,43.49,25.12" transform="translate(0 -0.11)"/><polygon class="cls-2" points="333.01 77.5 333.01 79.94 332.82 99.05 333.01 125.1 311.68 125.1 311.89 96.61 311.65 79.21 311.68 77.5 333.01 77.5"/><path class="cls-2" d="M361.56,78.55l-.21,24.73.21,21a23.86,23.86,0,0,0,3,.25,21.53,21.53,0,0,0,7-1.23,22.12,22.12,0,0,0,6.33-3.31,23.42,23.42,0,0,0,3.68-3.62,25.36,25.36,0,0,0,3.05-4.43c.44-.83.92-1.25,1.42-1.25.77,0,1.16.32,1.16,1s-.58,1.87-1.73,3.54a29.2,29.2,0,0,1-3.79,4.48,24.28,24.28,0,0,1-10.49,6,25.75,25.75,0,0,1-7,1,24.76,24.76,0,0,1-9.8-2.09,24.19,24.19,0,0,1-12-10.49A25.26,25.26,0,0,1,353.3,78.62,25.54,25.54,0,0,1,381.58,83c2.32,2.16,3.49,3.73,3.49,4.67a.88.88,0,0,1-.36.69,1.07,1.07,0,0,1-.77.32c-.46,0-1-.45-1.67-1.36a20.88,20.88,0,0,0-7.91-6.58A23.19,23.19,0,0,0,364,78.3a11.77,11.77,0,0,0-2.43.25" transform="translate(0 -0.11)"/><path class="cls-1" d="M406.08,123.05c-.85,9.31-3.95,20.21-20.67,20.21C359.22,143.26.66,148.5.66,148.5s358.6,4.16,379.76,4.16,24.25,10.16,25.1,16.93,4.22,42.3,4.22,42.3,2-25.38,3.94-41.17,13-17.49,21.16-18.62S500,148.43,500,148.43s-42.88-2-65.44-3.39-21.16-20-21.43-24.52-3.39-71.2-3.39-71.2-2.83,64.42-3.66,73.73" transform="translate(0 -0.11)"/><g class="cls-3"><rect class="cls-1" x="0.66" y="49.21" width="499.34" height="162.57"/></g><path class="cls-2" d="M252.12,93a29.41,29.41,0,0,0-1.68-3.79,23.35,23.35,0,0,0-2.4-3.43L247,87.88a22.22,22.22,0,0,1,1.44,2.18,22.75,22.75,0,0,1,2.93,11.3,23,23,0,0,1-1.75,8.89,22.1,22.1,0,0,1-8,10,23,23,0,0,1-10.49,4v0a13,13,0,0,1-2.27.21c-.16,0-.33,0-.51,0s-.33,0-.49,0a13.07,13.07,0,0,1-2.28-.21v0a22.65,22.65,0,0,1-13.8-6.9l-1.4,1.61a26.06,26.06,0,0,0,5.68,4.33A26.62,26.62,0,0,0,219,124.8a18.69,18.69,0,0,0,2.49.84l.65.21c.68.17,1.38.28,2.07.4a9.48,9.48,0,0,0,1,.19,21.72,21.72,0,0,0,2.56.16c.18,0,.37,0,.54,0s.37,0,.55,0a21.72,21.72,0,0,0,2.56-.16,9.06,9.06,0,0,0,1-.19c.7-.12,1.39-.23,2.06-.4.23-.06.43-.14.66-.21a19.85,19.85,0,0,0,2.5-.84,28.48,28.48,0,0,0,2.94-1.44,25.71,25.71,0,0,0,6.58-5.18.08.08,0,0,1,.05-.05,24.45,24.45,0,0,0,2.34-3.1c.11-.17.2-.35.31-.53a24.83,24.83,0,0,0,3.71-13A26.43,26.43,0,0,0,252.12,93" transform="translate(0 -0.11)"/><path class="cls-2" d="M207,110.25a23.17,23.17,0,0,1-1.75-8.89,22.75,22.75,0,0,1,2.93-11.3,21.91,21.91,0,0,1,10.11-9.45,23.51,23.51,0,0,1,7.22-2.09h0c.46-.07.91-.09,1.38-.13s.69-.09,1.05-.09h.61c.35,0,.7.07,1.06.09s.92.06,1.39.13h0a23.51,23.51,0,0,1,7.22,2.09,22.12,22.12,0,0,1,4.56,2.91L244.21,82c-.3-.25-.56-.57-.89-.81s-.5-.44-.8-.62a12.74,12.74,0,0,0-1.26-.7,20.89,20.89,0,0,0-2.33-1.3,26,26,0,0,0-5.23-1.76h-.11c-.83-.18-1.66-.31-2.5-.41s-1.48-.11-2.23-.13c-.19,0-.37,0-.56,0s-.36,0-.55,0c-.75,0-1.51.05-2.24.13s-1.67.23-2.5.41h-.1a26.18,26.18,0,0,0-5.23,1.76,23,23,0,0,0-2.34,1.3c-.41.23-.87.43-1.26.7s-.52.43-.79.62a24.18,24.18,0,0,0-7.11,8A26.07,26.07,0,0,0,203,101.53a24.94,24.94,0,0,0,2,9.7,23.13,23.13,0,0,0,1.51,2.93l1.28-2.26c-.26-.54-.57-1.07-.8-1.65" transform="translate(0 -0.11)"/><polygon class="cls-4" points="201.4 125.68 223.58 101.51 228.02 122.2 252.31 73.95 231.41 101.38 229.35 81.06 201.4 125.68"/><path class="cls-2" d="M439.6,25.31a3.78,3.78,0,0,1,0,.51.91.91,0,0,1-.1.34.44.44,0,0,1-.16.19.37.37,0,0,1-.21.06h-5.32V43.6a.37.37,0,0,1-.06.21.46.46,0,0,1-.2.15l-.39.09a4.9,4.9,0,0,1-.61,0,5,5,0,0,1-.6,0l-.39-.09a.44.44,0,0,1-.21-.15.37.37,0,0,1-.06-.21V26.41h-5.32a.42.42,0,0,1-.21-.06.42.42,0,0,1-.15-.19,1.56,1.56,0,0,1-.1-.34,3.78,3.78,0,0,1,0-.51,3.89,3.89,0,0,1,0-.51,1.79,1.79,0,0,1,.1-.36.46.46,0,0,1,.15-.2.42.42,0,0,1,.21-.06H439.1a.37.37,0,0,1,.21.06.47.47,0,0,1,.16.2,1,1,0,0,1,.1.36A3.89,3.89,0,0,1,439.6,25.31Z" transform="translate(0 -0.11)"/><path class="cls-2" d="M462.9,43.6a.37.37,0,0,1-.06.21.43.43,0,0,1-.22.15l-.38.09a4.64,4.64,0,0,1-.61,0,4.69,4.69,0,0,1-.59,0l-.39-.09a.44.44,0,0,1-.21-.15.37.37,0,0,1-.06-.21V26.34h0l-6.66,17.33a.5.5,0,0,1-.13.19.7.7,0,0,1-.23.13,1.63,1.63,0,0,1-.37.07,3.63,3.63,0,0,1-.5,0,4,4,0,0,1-.53,0,1.58,1.58,0,0,1-.36-.09.56.56,0,0,1-.23-.13.45.45,0,0,1-.11-.17l-6.37-17.33h0V43.6a.37.37,0,0,1-.06.21.44.44,0,0,1-.21.15l-.39.09a4.94,4.94,0,0,1-.62,0,4.73,4.73,0,0,1-.6,0l-.38-.09a.41.41,0,0,1-.2-.15.46.46,0,0,1-.05-.21V25.37a1.15,1.15,0,0,1,.33-.92,1.09,1.09,0,0,1,.72-.27h1.55a3.46,3.46,0,0,1,.83.09,1.77,1.77,0,0,1,.62.29,1.59,1.59,0,0,1,.45.51,3.46,3.46,0,0,1,.31.72l5.41,14.35h.07l5.63-14.31a5.8,5.8,0,0,1,.35-.78,2,2,0,0,1,.43-.51,1.41,1.41,0,0,1,.51-.28,2.57,2.57,0,0,1,.65-.08h1.62a1.25,1.25,0,0,1,.43.07.81.81,0,0,1,.34.21,1.23,1.23,0,0,1,.23.37,1.45,1.45,0,0,1,.09.54Z" transform="translate(0 -0.11)"/><path class="cls-1" d="M68.59,36.19l7.74-.51A22.36,22.36,0,0,0,84,41.25l2,7,9.15,2.56,2-6.08a20.58,20.58,0,0,0,7-1.34l6.39,4.35,4.48-4.55-3.9-5.75a13.39,13.39,0,0,0,.83-5.95l5.18-.83-2.49-7L109,21.29a27.07,27.07,0,0,0-1.84-2.71,15.34,15.34,0,0,0-3-3.11l.58-4.74L98,6,94,7.91a34.52,34.52,0,0,0-7.17-2.49l-4.29-5L74.79.11l1.4,5.63A9.29,9.29,0,0,0,70.5,8.17L63,5.87,60,12l6.85,4.92s-.26,4.8,1.4,7.55l-5.64,3.26M78.9,25.91A11.66,11.66,0,0,1,77,20.38c-.16-2.82,1.44-7.77,8.88-7.77,4.4,0,10.21,3,13.89,7.23a12.56,12.56,0,0,1,3.53,8c0,4-2.69,7.55-7.85,7.55C89.68,35.42,82.32,31.37,78.9,25.91Z" transform="translate(0 -0.11)"/><path class="cls-2" d="M96.3,61.13,87,59.8a31.17,31.17,0,0,0-5.8-8l2-7.84L74,37.57l-6.8,4.63a26.21,26.21,0,0,0-9.7-2.72l-4.93-8.29H41.21l-.94,8.5a31.26,31.26,0,0,0-9.75,4.15L19.07,39.42,9.92,47.59l7.78,8.88a24.88,24.88,0,0,0-3.61,10.74L0,72,1.26,85.9,17,87.1a43,43,0,0,0,7.51,11l-5.81,14.22,13,8.39L43.5,110.56a59,59,0,0,0,13,1.77l6.66,12.25,13.21-4V106.92a41.81,41.81,0,0,0,8.44-7.18l10.65,3.6,4.39-10.27-7.78-8.65a30.57,30.57,0,0,0,.49-9.57L100,70.78ZM57.82,93.24c-13,0-24.27-11-24.27-22.49s9.69-19.43,19.69-19.43c11.61,0,25.24,7.07,25.24,22.49C78.48,83.31,70.81,93.24,57.82,93.24Z" transform="translate(0 -0.11)"/><path class="cls-2" d="M151.72,55.88l.09-4.34,3.18-.43-1.49-4.52-4.16-2.21a10.68,10.68,0,0,0-2.63-3.9l.95-3.19-3.46-3.7-3.27.76a24,24,0,0,0-4-3.15l-1.25-3.29-4.53-2.05-.79,3-4,0-3.64-3.73-3.3,1.41,2,4.19c-1.25.49-2.35,2.59-2.35,2.59l-4.46-1.34-1,5.41,4.55,2.3a12.14,12.14,0,0,0,.92,4.56l-3.27,2.38,3.3,5.25,4.65.25a50.59,50.59,0,0,0,4.31,4.5v4.89l4.92,3.36,2.54-3.12a14.73,14.73,0,0,0,4.89,1.59l2.93,4.77,4.32-.19L146.52,63a8,8,0,0,0,3.22-2.2l4,2.72,1.68-3.57Zm-26.2-14.82c0-3.84,2.53-5.58,5.19-5.58,7.25,0,14.4,8.94,14.4,14.44,0,3.89-2.43,5.69-5.15,5.69C134.34,55.61,125.52,48.55,125.52,41.06Z" transform="translate(0 -0.11)"/></svg>